<svg id="visual" viewBox="0 0 900 600" width="900" height="600" xmlns="http://www.w3.org/2000/svg" xmlns:xlink="http://www.w3.org/1999/xlink" version="1.1"><rect x="0" y="0" width="900" height="600" fill="#2a2924"></rect><path d="M0 220L150 220L150 188L300 188L300 215L450 215L450 178L600 178L600 244L750 244L750 183L900 183L900 156L900 601L900 601L750 601L750 601L600 601L600 601L450 601L450 601L300 601L300 601L150 601L150 601L0 601Z" fill="#9f5439"></path><path d="M0 386L150 386L150 406L300 406L300 419L450 419L450 351L600 351L600 317L750 317L750 366L900 366L900 412L900 601L900 601L750 601L750 601L600 601L600 601L450 601L450 601L300 601L300 601L150 601L150 601L0 601Z" fill="#683241"></path><path d="M0 501L150 501L150 470L300 470L300 490L450 490L450 474L600 474L600 492L750 492L750 444L900 444L900 484L900 601L900 601L750 601L750 601L600 601L600 601L450 601L450 601L300 601L300 601L150 601L150 601L0 601Z" fill="#281d2a"></path></svg>