<?xml version="1.0" encoding="utf-8"?>
<!-- Generator: Adobe Illustrator 27.5.0, SVG Export Plug-In . SVG Version: 6.00 Build 0)  -->
<svg version="1.1" id="Layer_1" xmlns="http://www.w3.org/2000/svg" xmlns:xlink="http://www.w3.org/1999/xlink" x="0px" y="0px"
	 viewBox="0 0 1669.013 3183.955" style="enable-background:new 0 0 1669.013 3183.955;" xml:space="preserve">
<g>
	<path style="fill:#CAD1C6;" d="M1236.5,3136.194c-21.494,0-38.983-17.488-38.983-38.982v-60.62c0-11.6,5.094-22.034,13.161-29.182
		c-6.69-31.76-20.461-79.097-48.308-127.463c-63.453-110.196-167.535-172.623-309.358-185.557l-39.431,0.027
		c-141.446,12.917-245.325,75.335-308.779,185.533c-27.483,47.726-41.26,94.79-48.007,126.165
		c8.955,7.148,14.701,18.154,14.701,30.476v60.62c0,21.494-17.488,38.982-38.983,38.982H64.019
		c-21.494,0-38.984-17.488-38.984-38.982v-60.62c0-21.494,17.489-38.984,38.984-38.984h19.273
		c122.998-142.094,231.019-331.594,321.564-564.049c-17.872-3.543-31.389-19.343-31.389-38.242v-64.606
		c0-21.493,17.488-38.983,38.983-38.983h43.704c42.598-126.96,80.996-266.274,114.354-414.887
		c-5.926-6.839-9.514-15.754-9.514-25.494v-59.441c0-20.405,15.761-37.198,35.745-38.851c16.82-84.425,32.226-172.09,45.861-261.016
		c67.211-438.238,78.612-816.685,80.535-938.371c-10.716-6.955-17.816-19.025-17.816-32.724v-28.099
		c-7.167-7.074-11.613-16.896-11.613-27.734v-36.116c0-13.583,6.982-25.563,17.545-32.544v-5.856c0-9.783,3.621-18.733,9.594-25.586
		v-8.763c0-21.494,17.488-38.983,38.983-38.983h15.294l9.276-187.391c-4.31-8.028-6.644-17.055-6.644-26.281
		c0-30.787,25.047-55.833,55.833-55.833c30.787,0,55.833,25.046,55.833,55.833c0,9.226-2.333,18.253-6.644,26.281l9.276,187.391
		h15.293c21.494,0,38.984,17.488,38.984,38.983v8.763c5.972,6.853,9.593,15.804,9.593,25.586v5.856
		c10.564,6.982,17.545,18.962,17.545,32.544v36.116c0,10.838-4.446,20.66-11.612,27.734v28.099c0,13.699-7.101,25.769-17.817,32.724
		c1.924,121.686,13.324,500.133,80.536,938.371c13.645,88.972,29.049,176.642,45.858,261.016
		c19.989,1.649,35.75,18.446,35.75,38.851v59.441c0,9.74-3.589,18.655-9.515,25.494c33.352,148.607,71.753,287.924,114.351,414.887
		h43.704c21.494,0,38.983,17.489,38.983,38.983v64.606c0,18.895-13.512,34.696-31.382,38.237
		c30.641,78.639,63.517,152.927,98.011,221.452c3.913,4.688,6.709,10.187,8.183,16.112c8.726,16.982,17.731,33.931,26.834,50.52
		c4.558,4.89,7.859,10.847,9.593,17.307c29.112,51.804,59.823,100.844,91.37,145.905c3.4,3.357,6.174,7.293,8.203,11.633
		c25.569,35.804,52.212,69.746,79.363,101.125h21.117c21.494,0,38.983,17.49,38.983,38.984v60.62
		c0,21.494-17.488,38.982-38.983,38.982H1236.5z M302.433,2925.134l69.027-22.56l-15.158-17.713l-68.228,32.54L302.433,2925.134z
		 M1366.581,2925.134l14.357-7.729l-68.23-32.541l-15.155,17.71L1366.581,2925.134z M377.572,2784.579l72.365-34.511l-17.244-20.153
		l-71.239,35.828L377.572,2784.579z M1291.443,2784.579l16.118-18.836l-71.243-35.828l-17.244,20.153L1291.443,2784.579z"/>
	<g>
		<path style="fill:#A58C74;" d="M1099.234,2624.333c-0.404-1.385,0.254-3.151,1.557-3.829
			c15.165-7.895,31.856-12.433,48.618-15.425c35.002-6.247,70.979-6.511,106.409-5.198c11.228,0.417,22.439,1.096,33.645,1.866
			c-36.478-79.013-69.562-161.462-99.477-246.11h-712.8c-31.043,87.84-65.533,173.277-103.653,254.993
			c3.407,0.021,6.812,0.036,10.217-0.025c62.118-1.127,125.409-15.125,186.854-0.013c2.224,0.547,2.994,3.097,2.026,4.98
			c-11.251,21.879-20.911,44.51-29.485,67.562c-15.586,41.908-27.822,84.947-40.8,127.721
			c58.656-75.31,154.21-143.336,309.708-157.114h43.071c157.899,13.991,253.993,83.918,312.402,160.608
			C1146.252,2750.524,1118.089,2688.993,1099.234,2624.333z"/>
		<path style="fill:#7E3B29;" d="M1568.181,3048.157h-311.067c-3.565,0-6.522-2.764-6.763-6.32
			c-0.06-0.874-6.588-88.469-58.604-178.804c-69.519-120.729-182.978-188.874-337.226-202.539l-42.472,0.027
			c-153.646,13.639-267.105,81.784-336.622,202.512c-52.019,90.334-58.545,177.93-58.605,178.804
			c-0.245,3.556-3.199,6.32-6.764,6.32H98.991c-2.676,0-5.101-1.573-6.191-4.016c-1.089-2.446-0.641-5.299,1.145-7.293
			c152.198-169.59,281.797-407.581,385.195-707.356c82.826-240.132,149.096-520.164,196.97-832.317
			c81.548-531.737,81.319-978.148,81.307-982.594c-0.004-1.804,0.708-3.532,1.979-4.807c1.271-1.274,2.999-1.992,4.8-1.992h138.784
			c1.801,0,3.529,0.718,4.801,1.992c1.271,1.275,1.983,3.004,1.979,4.807c-0.014,4.446-0.242,450.857,81.307,982.594
			c47.871,312.153,114.141,592.185,196.967,832.317c103.4,299.775,232.998,537.765,385.193,707.356
			c1.787,1.993,2.238,4.847,1.146,7.293C1573.282,3046.584,1570.855,3048.157,1568.181,3048.157z M1263.292,3034.597h289.817
			c-149.097-170.161-276.202-405.827-377.927-700.781c-83.091-240.927-149.557-521.789-197.551-834.78
			c-76.192-496.909-81.105-919.482-81.413-977.695H770.954c-0.308,58.213-5.22,480.786-81.413,977.695
			c-47.993,312.991-114.458,593.853-197.552,834.78c-101.724,294.955-228.83,530.621-377.927,700.781h289.82
			c2.408-22.106,13.633-97.941,59.518-177.854c49.379-85.998,149.845-192.195,348.049-209.756l43.671-0.027
			c198.805,17.588,299.272,123.785,348.649,209.783C1249.656,2936.656,1260.881,3012.491,1263.292,3034.597z M978.201,2336.222
			H693.402c-2.046,0-3.983-0.923-5.267-2.512c-1.288-1.589-1.791-3.675-1.364-5.674l61.726-290.788
			c0.662-3.132,3.429-5.373,6.63-5.373H913.9c3.182,0,5.932,2.212,6.62,5.317l64.301,290.788c0.444,2.006-0.046,4.105-1.334,5.707
			C982.2,2335.289,980.257,2336.222,978.201,2336.222z M701.77,2322.663H969.76l-61.306-277.229H760.619L701.77,2322.663z"/>
		<path style="fill:#7E3B29;" d="M1198.219,2855.036c-1.775,0-3.496-0.931-4.433-2.585
			c-145.309-257.482-243.349-607.178-299.721-1069.079c-73.368-601.175-62.368-1252.822-62.248-1259.333
			c0.053-2.807,2.416-4.995,5.177-4.992c2.807,0.053,5.042,2.37,4.992,5.177c-0.119,6.505-11.106,657.465,62.176,1257.916
			c56.207,460.55,153.844,809.015,298.485,1065.311c1.38,2.447,0.516,5.548-1.93,6.929
			C1199.924,2854.823,1199.067,2855.036,1198.219,2855.036z"/>
		<path style="fill:#7E3B29;" d="M474.867,2855.036c-0.846,0-1.705-0.212-2.494-0.655c-2.445-1.381-3.309-4.482-1.929-6.929
			c144.639-256.29,242.275-604.758,298.482-1065.311c73.288-600.477,62.298-1251.412,62.179-1257.916
			c-0.05-2.807,2.184-5.125,4.992-5.177c2.777-0.033,5.125,2.184,5.178,4.992c0.119,6.511,11.119,658.158-62.253,1259.333
			C722.646,2245.276,624.607,2594.975,479.3,2852.45C478.366,2854.105,476.642,2855.036,474.867,2855.036z"/>
		<g>
			<g>
				<g>
					<polygon style="fill:#CFAE90;" points="855.327,363.814 842.061,95.818 836.903,95.818 830.27,95.818 825.111,95.818 
						811.847,363.814 					"/>
					<path style="fill:#7E3B29;" d="M855.327,368.898h-43.479c-1.394,0-2.725-0.569-3.684-1.579
						c-0.961-1.009-1.464-2.367-1.394-3.756l13.264-267.996c0.133-2.708,2.368-4.833,5.078-4.833h16.949
						c2.712,0,4.947,2.125,5.078,4.833l13.264,267.996c0.07,1.39-0.433,2.747-1.393,3.756
						C858.05,368.328,856.719,368.898,855.327,368.898z M817.19,358.728h32.793l-12.761-257.825h-7.27L817.19,358.728z"/>
				</g>
				<g>
					<path style="fill:#CFAE90;" d="M852.13,103.594c0,10.243-8.302,18.544-18.543,18.544c-10.243,0-18.544-8.302-18.544-18.544
						c0-10.242,8.302-18.543,18.544-18.543C843.828,85.051,852.13,93.353,852.13,103.594z"/>
					<path style="fill:#7E3B29;" d="M833.587,125.528c-12.096,0-21.934-9.838-21.934-21.935c0-12.096,9.838-21.934,21.934-21.934
						c12.097,0,21.935,9.838,21.935,21.934C855.522,115.69,845.683,125.528,833.587,125.528z M833.587,88.438
						c-8.355,0-15.155,6.799-15.155,15.155s6.799,15.155,15.155,15.155s15.155-6.8,15.155-15.155S841.942,88.438,833.587,88.438z"/>
				</g>
			</g>
			<g>
				<rect x="759.828" y="356.246" style="fill:#CFAE90;" width="147.516" height="50.401"/>
				<path style="fill:#7E3B29;" d="M907.345,411.731H759.828c-2.807,0-5.085-2.278-5.085-5.085v-50.401
					c0-2.807,2.278-5.085,5.085-5.085h147.517c2.807,0,5.085,2.278,5.085,5.085v50.401
					C912.43,409.453,910.152,411.731,907.345,411.731z M764.913,401.561H902.26V361.33H764.913V401.561z"/>
			</g>
			<g>
				<rect x="750.233" y="390.598" style="fill:#A58C74;" width="166.706" height="55.958"/>
				<path style="fill:#7E3B29;" d="M916.939,451.641H750.234c-2.806,0-5.084-2.277-5.084-5.085v-55.959
					c0-2.806,2.278-5.084,5.084-5.084h166.705c2.807,0,5.085,2.278,5.085,5.084v55.959
					C922.024,449.364,919.746,451.641,916.939,451.641z M755.319,441.471h156.535v-45.79H755.319V441.471z"/>
			</g>
			<g>
				<rect x="744.302" y="459.931" style="fill:#A58C74;" width="178.568" height="61.011"/>
				<path style="fill:#7E3B29;" d="M922.871,526.028H744.302c-2.807,0-5.085-2.278-5.085-5.084V459.93
					c0-2.807,2.278-5.085,5.085-5.085h178.569c2.807,0,5.085,2.278,5.085,5.085v61.014
					C927.956,523.75,925.678,526.028,922.871,526.028z M749.387,515.859h168.399v-50.845H749.387V515.859z"/>
			</g>
			<g>
				<rect x="732.688" y="428.999" style="fill:#CFAE90;" width="201.796" height="36.11"/>
				<path style="fill:#7E3B29;" d="M934.484,470.195H732.689c-2.806,0-5.084-2.277-5.084-5.085v-36.112
					c0-2.807,2.278-5.085,5.084-5.085h201.795c2.807,0,5.085,2.277,5.085,5.085v36.112
					C939.569,467.918,937.291,470.195,934.484,470.195z M737.774,460.027h191.625v-25.944H737.774V460.027z"/>
			</g>
		</g>
		<g>
			<rect x="599.975" y="1791.909" style="fill:#A58C74;" width="467.223" height="59.44"/>
			<path style="fill:#7E3B29;" d="M1067.197,1856.435H599.975c-2.809,0-5.085-2.278-5.085-5.085v-59.441
				c0-2.807,2.276-5.085,5.085-5.085h467.222c2.807,0,5.085,2.278,5.085,5.085v59.441
				C1072.282,1854.158,1070.004,1856.435,1067.197,1856.435z M605.059,1846.265h457.053v-49.271H605.059V1846.265z"/>
		</g>
		<g>
			<rect x="599.975" y="1827.19" style="fill:#736251;" width="467.223" height="24.159"/>
		</g>
		<g>
			<polygon style="fill:#9B835F;" points="588.845,1982.156 1078.574,1982.156 1086.551,2015.656 582.463,2015.656 			"/>
			<path style="fill:#7E3B29;" d="M1086.55,2022.434H582.462c-2.02,0-3.935-0.901-5.223-2.457c-1.288-1.559-1.814-3.608-1.437-5.591
				l6.382-33.498c0.609-3.198,3.405-5.512,6.66-5.512h489.73c3.139,0,5.869,2.155,6.595,5.21l7.975,33.498
				c0.479,2.016,0.013,4.145-1.275,5.77C1090.585,2021.484,1088.626,2022.434,1086.55,2022.434z M590.656,2008.875h487.31
				l-4.747-19.938H594.455L590.656,2008.875z"/>
		</g>
		<path style="fill:#7E3B29;" d="M1124.033,2706.681c-1.086,0-2.179-0.345-3.102-1.06
			c-276.023-212.858-562.966-13.878-565.832-11.845c-2.29,1.635-5.46,1.093-7.089-1.202c-1.626-2.287-1.09-5.462,1.198-7.087
			c0.733-0.52,74.459-52.318,181.89-76.49c99.307-22.333,248.623-25.113,396.044,88.573c2.224,1.715,2.635,4.906,0.92,7.13
			C1127.063,2705.999,1125.556,2706.681,1124.033,2706.681z"/>
		<g>
			<polygon style="fill:none;" points="913.9,2038.656 755.129,2038.656 693.403,2329.444 978.202,2329.444 			"/>
			<path style="fill:#7E3B29;" d="M1289.82,2607.779H377.352c-1.735,0-3.349-0.884-4.284-2.343c-0.935-1.464-1.06-3.3-0.332-4.874
				c21.282-46.053,42.057-94.806,61.744-144.895c0.766-1.946,2.642-3.224,4.733-3.224h788.746c2.089,0,3.97,1.278,4.734,3.224
				c19.686,50.09,40.459,98.842,61.742,144.895c0.728,1.573,0.603,3.41-0.331,4.874
				C1293.17,2606.896,1291.555,2607.779,1289.82,2607.779z M385.288,2597.61h896.594c-19.746-43.101-39.03-88.464-57.385-134.998
				H442.676C424.321,2509.146,405.037,2554.509,385.288,2597.61z"/>
			<path style="fill:#7E3B29;" d="M978.201,2334.527H693.402c-1.532,0-2.986-0.692-3.953-1.883c-0.963-1.191-1.34-2.758-1.023-4.257
				l61.725-290.788c0.5-2.35,2.576-4.029,4.976-4.029H913.9c2.387,0,4.449,1.659,4.966,3.986l64.301,290.788
				c0.33,1.506-0.036,3.082-1,4.283C981.2,2333.829,979.744,2334.527,978.201,2334.527z M699.678,2324.358h272.19l-62.05-280.618
				H759.246L699.678,2324.358z"/>
			<path style="fill:#7E3B29;" d="M1227.959,2462.613H439.213c-1.682,0-3.254-0.831-4.203-2.221
				c-0.947-1.391-1.145-3.159-0.53-4.725c11.016-28.022,22.049-57.425,32.794-87.394c0.726-2.019,2.64-3.367,4.787-3.367h723.049
				c2.146,0,4.062,1.348,4.787,3.367c10.729,29.923,21.762,59.325,32.797,87.394c0.612,1.566,0.414,3.334-0.533,4.725
				C1231.214,2461.781,1229.641,2462.613,1227.959,2462.613z M446.665,2452.443h773.843c-9.746-24.99-19.475-50.967-28.973-77.367
				H475.638C466.126,2401.513,456.397,2427.486,446.665,2452.443z"/>
			<g>
				<path style="fill:#7E3B29;" d="M482.763,2462.616c-2.81,0-5.085-2.278-5.085-5.085v-86.94c0-2.807,2.275-5.085,5.085-5.085
					c2.808,0,5.085,2.278,5.085,5.085v86.94C487.847,2460.338,485.571,2462.616,482.763,2462.616z"/>
				<path style="fill:#7E3B29;" d="M536.754,2462.616c-2.808,0-5.085-2.278-5.085-5.085v-86.94c0-2.807,2.277-5.085,5.085-5.085
					c2.81,0,5.085,2.278,5.085,5.085v86.94C541.839,2460.338,539.564,2462.616,536.754,2462.616z"/>
				<path style="fill:#7E3B29;" d="M590.747,2462.616c-2.808,0-5.085-2.278-5.085-5.085v-86.94c0-2.807,2.277-5.085,5.085-5.085
					c2.808,0,5.085,2.278,5.085,5.085v86.94C595.832,2460.338,593.555,2462.616,590.747,2462.616z"/>
				<path style="fill:#7E3B29;" d="M644.738,2462.616c-2.808,0-5.085-2.278-5.085-5.085v-86.94c0-2.807,2.277-5.085,5.085-5.085
					c2.81,0,5.085,2.278,5.085,5.085v86.94C649.822,2460.338,647.547,2462.616,644.738,2462.616z"/>
				<path style="fill:#7E3B29;" d="M752.721,2462.616c-2.807,0-5.085-2.278-5.085-5.085v-86.94c0-2.807,2.278-5.085,5.085-5.085
					s5.085,2.278,5.085,5.085v86.94C757.806,2460.338,755.528,2462.616,752.721,2462.616z"/>
				<path style="fill:#7E3B29;" d="M860.705,2462.616c-2.807,0-5.085-2.278-5.085-5.085v-86.94c0-2.807,2.278-5.085,5.085-5.085
					c2.807,0,5.085,2.278,5.085,5.085v86.94C865.79,2460.338,863.513,2462.616,860.705,2462.616z"/>
				<path style="fill:#7E3B29;" d="M1076.672,2462.616c-2.807,0-5.085-2.278-5.085-5.085v-86.94c0-2.807,2.278-5.085,5.085-5.085
					c2.807,0,5.085,2.278,5.085,5.085v86.94C1081.757,2460.338,1079.479,2462.616,1076.672,2462.616z"/>
				<path style="fill:#7E3B29;" d="M1022.679,2462.616c-2.807,0-5.085-2.278-5.085-5.085v-86.94c0-2.807,2.278-5.085,5.085-5.085
					s5.085,2.278,5.085,5.085v86.94C1027.764,2460.338,1025.486,2462.616,1022.679,2462.616z"/>
				<path style="fill:#7E3B29;" d="M968.691,2462.616c-2.807,0-5.085-2.278-5.085-5.085v-86.94c0-2.807,2.278-5.085,5.085-5.085
					c2.806,0,5.084,2.278,5.084,5.085v86.94C973.774,2460.338,971.497,2462.616,968.691,2462.616z"/>
				<path style="fill:#7E3B29;" d="M1130.663,2462.616c-2.806,0-5.084-2.278-5.084-5.085v-86.94c0-2.807,2.278-5.085,5.084-5.085
					c2.807,0,5.085,2.278,5.085,5.085v86.94C1135.748,2460.338,1133.471,2462.616,1130.663,2462.616z"/>
				<path style="fill:#7E3B29;" d="M698.728,2462.616c-2.807,0-5.085-2.278-5.085-5.085v-86.94c0-2.807,2.278-5.085,5.085-5.085
					s5.085,2.278,5.085,5.085v86.94C703.813,2460.338,701.535,2462.616,698.728,2462.616z"/>
				<path style="fill:#7E3B29;" d="M806.714,2462.616c-2.807,0-5.085-2.278-5.085-5.085v-86.94c0-2.807,2.278-5.085,5.085-5.085
					c2.806,0,5.084,2.278,5.084,5.085v86.94C811.797,2460.338,809.52,2462.616,806.714,2462.616z"/>
				<path style="fill:#7E3B29;" d="M914.698,2462.616c-2.807,0-5.085-2.278-5.085-5.085v-86.94c0-2.807,2.278-5.085,5.085-5.085
					s5.085,2.278,5.085,5.085v86.94C919.783,2460.338,917.505,2462.616,914.698,2462.616z"/>
				<path style="fill:#7E3B29;" d="M1184.656,2462.616c-2.807,0-5.085-2.278-5.085-5.085v-86.94c0-2.807,2.278-5.085,5.085-5.085
					c2.807,0,5.085,2.278,5.085,5.085v86.94C1189.741,2460.338,1187.463,2462.616,1184.656,2462.616z"/>
			</g>
			<g>
				<path style="fill:#7E3B29;" d="M510.035,2602.887c-2.808,0-5.085-2.278-5.085-5.085v-138.871c0-2.807,2.276-5.085,5.085-5.085
					c2.81,0,5.085,2.278,5.085,5.085v138.871C515.119,2600.61,512.844,2602.887,510.035,2602.887z"/>
				<path style="fill:#7E3B29;" d="M445.331,2602.887c-2.809,0-5.085-2.278-5.085-5.085v-138.871c0-2.807,2.275-5.085,5.085-5.085
					c2.808,0,5.084,2.278,5.084,5.085v138.871C450.414,2600.61,448.139,2602.887,445.331,2602.887z"/>
				<path style="fill:#7E3B29;" d="M574.74,2602.887c-2.808,0-5.085-2.278-5.085-5.085v-138.871c0-2.807,2.276-5.085,5.085-5.085
					c2.809,0,5.085,2.278,5.085,5.085v138.871C579.824,2600.61,577.549,2602.887,574.74,2602.887z"/>
				<path style="fill:#7E3B29;" d="M639.446,2602.887c-2.808,0-5.085-2.278-5.085-5.085v-138.871c0-2.807,2.276-5.085,5.085-5.085
					c2.809,0,5.085,2.278,5.085,5.085v138.871C644.531,2600.61,642.255,2602.887,639.446,2602.887z"/>
				<path style="fill:#7E3B29;" d="M704.151,2602.887c-2.807,0-5.085-2.278-5.085-5.085v-138.871c0-2.807,2.278-5.085,5.085-5.085
					c2.807,0,5.085,2.278,5.085,5.085v138.871C709.236,2600.61,706.958,2602.887,704.151,2602.887z"/>
				<path style="fill:#7E3B29;" d="M768.856,2602.887c-2.807,0-5.085-2.278-5.085-5.085v-138.871c0-2.807,2.278-5.085,5.085-5.085
					s5.085,2.278,5.085,5.085v138.871C773.941,2600.61,771.663,2602.887,768.856,2602.887z"/>
				<path style="fill:#7E3B29;" d="M833.56,2602.887c-2.806,0-5.084-2.278-5.084-5.085v-138.871c0-2.807,2.278-5.085,5.084-5.085
					c2.807,0,5.085,2.278,5.085,5.085v138.871C838.645,2600.61,836.367,2602.887,833.56,2602.887z"/>
				<path style="fill:#7E3B29;" d="M898.265,2602.887c-2.807,0-5.085-2.278-5.085-5.085v-138.871c0-2.807,2.277-5.085,5.085-5.085
					s5.085,2.278,5.085,5.085v138.871C903.35,2600.61,901.072,2602.887,898.265,2602.887z"/>
				<path style="fill:#7E3B29;" d="M962.97,2602.887c-2.807,0-5.085-2.278-5.085-5.085v-138.871c0-2.807,2.278-5.085,5.085-5.085
					c2.807,0,5.085,2.278,5.085,5.085v138.871C968.055,2600.61,965.777,2602.887,962.97,2602.887z"/>
				<path style="fill:#7E3B29;" d="M1027.675,2602.887c-2.807,0-5.085-2.278-5.085-5.085v-138.871c0-2.807,2.278-5.085,5.085-5.085
					s5.085,2.278,5.085,5.085v138.871C1032.76,2600.61,1030.482,2602.887,1027.675,2602.887z"/>
				<path style="fill:#7E3B29;" d="M1092.379,2602.887c-2.807,0-5.085-2.278-5.085-5.085v-138.871c0-2.807,2.278-5.085,5.085-5.085
					c2.807,0,5.085,2.278,5.085,5.085v138.871C1097.464,2600.61,1095.186,2602.887,1092.379,2602.887z"/>
				<path style="fill:#7E3B29;" d="M1157.084,2602.887c-2.807,0-5.085-2.278-5.085-5.085v-138.871c0-2.807,2.278-5.085,5.085-5.085
					c2.807,0,5.085,2.278,5.085,5.085v138.871C1162.169,2600.61,1159.891,2602.887,1157.084,2602.887z"/>
				<path style="fill:#7E3B29;" d="M1221.789,2602.887c-2.807,0-5.085-2.278-5.085-5.085v-138.871c0-2.807,2.278-5.085,5.085-5.085
					c2.807,0,5.085,2.278,5.085,5.085v138.871C1226.874,2600.61,1224.596,2602.887,1221.789,2602.887z"/>
			</g>
			<path style="fill:#7E3B29;" d="M446.871,2527.817c-1.342,0-2.685-0.53-3.684-1.58c-1.936-2.035-1.856-5.253,0.178-7.19
				l61.615-58.624c2.034-1.937,5.252-1.856,7.191,0.179c1.935,2.036,1.855,5.254-0.179,7.19l-61.615,58.624
				C449.392,2527.354,448.13,2527.817,446.871,2527.817z"/>
			<path style="fill:#7E3B29;" d="M448.663,2605.585c-1.246,0-2.495-0.457-3.477-1.378l-48.154-45.163
				c-1.053-0.987-1.637-2.373-1.605-3.816c0.029-1.443,0.673-2.804,1.767-3.744l39.283-33.793l-14.111-20.156
				c-1.611-2.301-1.051-5.473,1.249-7.082c2.302-1.615,5.471-1.053,7.083,1.248l16.749,23.927c1.498,2.141,1.13,5.068-0.851,6.77
				l-38.48,33.101l44.027,41.293c2.049,1.921,2.152,5.137,0.232,7.187C451.373,2605.045,450.021,2605.585,448.663,2605.585z"/>
			<path style="fill:#7E3B29;" d="M387.051,2605.585c-1.342,0-2.685-0.53-3.684-1.579c-1.934-2.036-1.855-5.253,0.179-7.19
				l61.615-58.624c2.034-1.937,5.251-1.854,7.19,0.179c1.935,2.035,1.855,5.253-0.179,7.19l-61.615,58.624
				C389.572,2605.121,388.311,2605.585,387.051,2605.585z"/>
			<path style="fill:#7E3B29;" d="M1218.952,2605.585c-1.354,0-2.708-0.541-3.708-1.606c-1.923-2.049-1.82-5.266,0.229-7.187
				l44.028-41.293l-38.48-33.101c-1.98-1.702-2.347-4.628-0.848-6.77l16.75-23.927c1.609-2.304,4.787-2.857,7.081-1.248
				c2.3,1.608,2.86,4.78,1.248,7.082l-14.109,20.156l39.281,33.793c1.093,0.94,1.735,2.301,1.768,3.744
				c0.03,1.443-0.553,2.83-1.605,3.816l-48.156,45.163C1221.448,2605.128,1220.2,2605.585,1218.952,2605.585z"/>
			<path style="fill:#7E3B29;" d="M1280.568,2605.585c-1.262,0-2.52-0.464-3.506-1.4l-61.616-58.624
				c-2.033-1.937-2.116-5.155-0.179-7.19c1.94-2.033,5.151-2.115,7.19-0.179l61.617,58.624c2.032,1.937,2.116,5.154,0.179,7.19
				C1283.253,2605.056,1281.912,2605.585,1280.568,2605.585z"/>
			<g>
				<path style="fill:#7E3B29;" d="M508.486,2605.585c-1.26,0-2.521-0.464-3.506-1.4l-61.615-58.624
					c-2.034-1.937-2.114-5.155-0.178-7.19c1.941-2.033,5.157-2.112,7.19-0.179l61.615,58.624c2.034,1.937,2.113,5.154,0.179,7.19
					C511.17,2605.056,509.828,2605.585,508.486,2605.585z"/>
				<path style="fill:#7E3B29;" d="M446.871,2605.585c-1.342,0-2.685-0.53-3.684-1.579c-1.936-2.036-1.856-5.253,0.178-7.19
					l61.615-58.624c2.034-1.937,5.252-1.854,7.191,0.179c1.935,2.035,1.855,5.253-0.179,7.19l-61.615,58.624
					C449.392,2605.121,448.13,2605.585,446.871,2605.585z"/>
				<path style="fill:#7E3B29;" d="M508.486,2527.817c-1.26,0-2.521-0.463-3.506-1.4l-61.615-58.624
					c-2.034-1.936-2.114-5.154-0.178-7.19c1.941-2.032,5.157-2.111,7.19-0.179l61.615,58.624c2.034,1.937,2.113,5.155,0.179,7.19
					C511.17,2527.288,509.828,2527.817,508.486,2527.817z"/>
				<path style="fill:#7E3B29;" d="M572.693,2605.585c-1.26,0-2.521-0.464-3.506-1.4l-61.615-58.624
					c-2.034-1.937-2.113-5.155-0.178-7.19c1.94-2.033,5.159-2.112,7.19-0.179l61.615,58.624c2.034,1.937,2.114,5.154,0.179,7.19
					C575.377,2605.056,574.034,2605.585,572.693,2605.585z"/>
				<path style="fill:#7E3B29;" d="M511.078,2605.585c-1.343,0-2.685-0.53-3.685-1.579c-1.935-2.036-1.856-5.253,0.178-7.19
					l61.615-58.624c2.033-1.937,5.251-1.854,7.191,0.179c1.934,2.035,1.855,5.253-0.179,7.19l-61.615,58.624
					C513.599,2605.121,512.337,2605.585,511.078,2605.585z"/>
				<path style="fill:#7E3B29;" d="M572.693,2527.817c-1.26,0-2.521-0.463-3.506-1.4l-61.615-58.624
					c-2.034-1.936-2.113-5.154-0.178-7.19c1.94-2.032,5.159-2.111,7.19-0.179l61.615,58.624c2.034,1.937,2.114,5.155,0.179,7.19
					C575.377,2527.288,574.034,2527.817,572.693,2527.817z"/>
				<path style="fill:#7E3B29;" d="M511.078,2527.817c-1.343,0-2.685-0.53-3.685-1.58c-1.935-2.035-1.856-5.253,0.178-7.19
					l61.615-58.624c2.033-1.937,5.251-1.856,7.191,0.179c1.934,2.036,1.855,5.254-0.179,7.19l-61.615,58.624
					C513.599,2527.354,512.337,2527.817,511.078,2527.817z"/>
			</g>
			<path style="fill:#7E3B29;" d="M576.88,2527.817c-1.343,0-2.685-0.53-3.685-1.58c-1.935-2.035-1.855-5.253,0.179-7.19
				l61.616-58.624c2.034-1.937,5.252-1.856,7.19,0.179c1.936,2.036,1.856,5.254-0.178,7.19l-61.617,58.624
				C579.401,2527.354,578.14,2527.817,576.88,2527.817z"/>
			<g>
				<path style="fill:#7E3B29;" d="M638.496,2605.585c-1.259,0-2.521-0.464-3.505-1.4l-61.616-58.624
					c-2.034-1.937-2.115-5.155-0.179-7.19c1.942-2.033,5.158-2.112,7.19-0.179l61.617,58.624c2.034,1.937,2.114,5.154,0.178,7.19
					C641.181,2605.056,639.838,2605.585,638.496,2605.585z"/>
				<path style="fill:#7E3B29;" d="M576.88,2605.585c-1.343,0-2.685-0.53-3.685-1.579c-1.935-2.036-1.855-5.253,0.179-7.19
					l61.616-58.624c2.034-1.937,5.252-1.854,7.19,0.179c1.936,2.035,1.856,5.253-0.178,7.19l-61.617,58.624
					C579.401,2605.121,578.14,2605.585,576.88,2605.585z"/>
				<path style="fill:#7E3B29;" d="M638.496,2527.817c-1.259,0-2.521-0.463-3.505-1.4l-61.616-58.624
					c-2.034-1.936-2.115-5.154-0.179-7.19c1.942-2.032,5.158-2.111,7.19-0.179l61.617,58.624c2.034,1.937,2.114,5.155,0.178,7.19
					C641.181,2527.288,639.838,2527.817,638.496,2527.817z"/>
				<path style="fill:#7E3B29;" d="M702.704,2605.585c-1.261,0-2.519-0.464-3.505-1.4l-61.615-58.624
					c-2.036-1.937-2.116-5.155-0.18-7.19c1.938-2.033,5.157-2.112,7.19-0.179l61.616,58.624c2.033,1.937,2.116,5.154,0.179,7.19
					C705.389,2605.056,704.048,2605.585,702.704,2605.585z"/>
				<path style="fill:#7E3B29;" d="M641.089,2605.585c-1.343,0-2.685-0.53-3.685-1.579c-1.935-2.036-1.856-5.253,0.18-7.19
					l61.615-58.624c2.032-1.937,5.25-1.854,7.19,0.179c1.937,2.035,1.854,5.253-0.179,7.19l-61.616,58.624
					C643.608,2605.121,642.347,2605.585,641.089,2605.585z"/>
				<path style="fill:#7E3B29;" d="M702.704,2527.817c-1.261,0-2.519-0.463-3.505-1.4l-61.615-58.624
					c-2.036-1.936-2.116-5.154-0.18-7.19c1.938-2.032,5.157-2.111,7.19-0.179l61.616,58.624c2.033,1.937,2.116,5.155,0.179,7.19
					C705.389,2527.288,704.048,2527.817,702.704,2527.817z"/>
				<path style="fill:#7E3B29;" d="M641.089,2527.817c-1.343,0-2.685-0.53-3.685-1.58c-1.935-2.035-1.856-5.253,0.18-7.19
					l61.615-58.624c2.032-1.937,5.25-1.853,7.19,0.179c1.937,2.036,1.854,5.254-0.179,7.19l-61.616,58.624
					C643.608,2527.354,642.347,2527.817,641.089,2527.817z"/>
			</g>
			<path style="fill:#7E3B29;" d="M706.094,2527.817c-1.344,0-2.684-0.53-3.684-1.58c-1.937-2.035-1.854-5.253,0.179-7.19
				l61.612-58.624c2.033-1.937,5.25-1.853,7.191,0.179c1.937,2.036,1.853,5.254-0.179,7.19l-61.612,58.624
				C708.617,2527.354,707.355,2527.817,706.094,2527.817z"/>
			<g>
				<path style="fill:#7E3B29;" d="M767.707,2605.585c-1.262,0-2.52-0.464-3.507-1.4l-61.612-58.624
					c-2.033-1.937-2.116-5.155-0.179-7.19c1.937-2.033,5.155-2.115,7.191-0.179l61.612,58.624c2.032,1.937,2.116,5.154,0.179,7.19
					C770.391,2605.056,769.051,2605.585,767.707,2605.585z"/>
				<path style="fill:#7E3B29;" d="M706.094,2605.585c-1.344,0-2.684-0.53-3.684-1.579c-1.937-2.036-1.854-5.253,0.179-7.19
					l61.612-58.624c2.033-1.937,5.25-1.854,7.191,0.179c1.937,2.035,1.853,5.253-0.179,7.19l-61.612,58.624
					C708.617,2605.121,707.355,2605.585,706.094,2605.585z"/>
				<path style="fill:#7E3B29;" d="M767.707,2527.817c-1.262,0-2.52-0.463-3.507-1.4l-61.612-58.624
					c-2.033-1.936-2.116-5.154-0.179-7.19c1.937-2.032,5.155-2.115,7.191-0.179l61.612,58.624c2.032,1.937,2.116,5.155,0.179,7.19
					C770.391,2527.288,769.051,2527.817,767.707,2527.817z"/>
				<path style="fill:#7E3B29;" d="M831.915,2605.585c-1.261,0-2.519-0.464-3.505-1.4l-61.617-58.624
					c-2.032-1.937-2.115-5.155-0.178-7.19c1.94-2.033,5.154-2.115,7.19-0.179l61.616,58.624c2.033,1.937,2.116,5.154,0.179,7.19
					C834.6,2605.056,833.26,2605.585,831.915,2605.585z"/>
				<path style="fill:#7E3B29;" d="M770.299,2605.585c-1.345,0-2.685-0.53-3.684-1.579c-1.937-2.036-1.854-5.253,0.178-7.19
					l61.617-58.624c2.032-1.937,5.25-1.854,7.19,0.179c1.937,2.035,1.854,5.253-0.179,7.19l-61.616,58.624
					C772.821,2605.121,771.56,2605.585,770.299,2605.585z"/>
				<path style="fill:#7E3B29;" d="M831.915,2527.817c-1.261,0-2.519-0.463-3.505-1.4l-61.617-58.624
					c-2.032-1.936-2.115-5.154-0.178-7.19c1.94-2.032,5.154-2.115,7.19-0.179l61.616,58.624c2.033,1.937,2.116,5.155,0.179,7.19
					C834.6,2527.288,833.26,2527.817,831.915,2527.817z"/>
				<path style="fill:#7E3B29;" d="M770.299,2527.817c-1.345,0-2.685-0.53-3.684-1.58c-1.937-2.035-1.854-5.253,0.178-7.19
					l61.617-58.624c2.032-1.937,5.25-1.853,7.19,0.179c1.937,2.036,1.854,5.254-0.179,7.19l-61.616,58.624
					C772.821,2527.354,771.56,2527.817,770.299,2527.817z"/>
			</g>
			<path style="fill:#7E3B29;" d="M834.507,2527.817c-1.344,0-2.684-0.53-3.684-1.58c-1.937-2.035-1.853-5.253,0.179-7.19
				l61.616-58.624c2.033-1.937,5.251-1.853,7.191,0.179c1.937,2.036,1.854,5.254-0.179,7.19l-61.616,58.624
				C837.03,2527.354,835.769,2527.817,834.507,2527.817z"/>
			<g>
				<path style="fill:#7E3B29;" d="M896.123,2605.585c-1.261,0-2.52-0.464-3.506-1.4l-61.616-58.624
					c-2.032-1.937-2.116-5.155-0.179-7.19c1.94-2.033,5.155-2.115,7.191-0.179l61.616,58.624c2.033,1.937,2.116,5.154,0.179,7.19
					C898.807,2605.056,897.467,2605.585,896.123,2605.585z"/>
				<path style="fill:#7E3B29;" d="M834.507,2605.585c-1.344,0-2.684-0.53-3.684-1.579c-1.937-2.036-1.853-5.253,0.179-7.19
					l61.616-58.624c2.033-1.937,5.251-1.854,7.191,0.179c1.937,2.035,1.854,5.253-0.179,7.19l-61.616,58.624
					C837.03,2605.121,835.769,2605.585,834.507,2605.585z"/>
				<path style="fill:#7E3B29;" d="M896.123,2527.817c-1.261,0-2.52-0.463-3.506-1.4l-61.616-58.624
					c-2.032-1.936-2.116-5.154-0.179-7.19c1.94-2.032,5.155-2.115,7.191-0.179l61.616,58.624c2.033,1.937,2.116,5.155,0.179,7.19
					C898.807,2527.288,897.467,2527.817,896.123,2527.817z"/>
				<path style="fill:#7E3B29;" d="M960.328,2605.585c-1.261,0-2.519-0.464-3.505-1.4l-61.613-58.624
					c-2.033-1.937-2.116-5.155-0.179-7.19c1.94-2.033,5.151-2.115,7.19-0.179l61.614,58.624c2.032,1.937,2.115,5.154,0.178,7.19
					C963.013,2605.056,961.672,2605.585,960.328,2605.585z"/>
				<path style="fill:#7E3B29;" d="M898.715,2605.585c-1.344,0-2.685-0.53-3.684-1.579c-1.937-2.036-1.854-5.253,0.179-7.19
					l61.613-58.624c2.029-1.937,5.253-1.854,7.19,0.179c1.937,2.035,1.854,5.253-0.178,7.19l-61.614,58.624
					C901.237,2605.121,899.976,2605.585,898.715,2605.585z"/>
				<path style="fill:#7E3B29;" d="M960.328,2527.817c-1.261,0-2.519-0.463-3.505-1.4l-61.613-58.624
					c-2.033-1.936-2.116-5.154-0.179-7.19c1.94-2.032,5.151-2.115,7.19-0.179l61.614,58.624c2.032,1.937,2.115,5.155,0.178,7.19
					C963.013,2527.288,961.672,2527.817,960.328,2527.817z"/>
				<path style="fill:#7E3B29;" d="M898.715,2527.817c-1.344,0-2.685-0.53-3.684-1.58c-1.937-2.035-1.854-5.253,0.179-7.19
					l61.613-58.624c2.029-1.937,5.253-1.853,7.19,0.179c1.937,2.036,1.854,5.254-0.178,7.19l-61.614,58.624
					C901.237,2527.354,899.976,2527.817,898.715,2527.817z"/>
			</g>
			<path style="fill:#7E3B29;" d="M834.507,2527.817c-1.344,0-2.684-0.53-3.684-1.58c-1.937-2.035-1.853-5.253,0.179-7.19
				l61.616-58.624c2.033-1.937,5.251-1.853,7.191,0.179c1.937,2.036,1.854,5.254-0.179,7.19l-61.616,58.624
				C837.03,2527.354,835.769,2527.817,834.507,2527.817z"/>
			<g>
				<path style="fill:#7E3B29;" d="M1024.536,2605.585c-1.261,0-2.519-0.464-3.505-1.4l-61.617-58.624
					c-2.032-1.937-2.115-5.155-0.178-7.19c1.937-2.033,5.15-2.115,7.19-0.179l61.616,58.624c2.033,1.937,2.116,5.154,0.179,7.19
					C1027.221,2605.056,1025.88,2605.585,1024.536,2605.585z"/>
				<path style="fill:#7E3B29;" d="M962.921,2605.585c-1.345,0-2.685-0.53-3.685-1.579c-1.937-2.036-1.854-5.253,0.178-7.19
					l61.617-58.624c2.029-1.937,5.253-1.854,7.19,0.179c1.937,2.035,1.854,5.253-0.179,7.19l-61.616,58.624
					C965.443,2605.121,964.182,2605.585,962.921,2605.585z"/>
				<path style="fill:#7E3B29;" d="M1024.536,2527.817c-1.261,0-2.519-0.463-3.505-1.4l-61.617-58.624
					c-2.032-1.936-2.115-5.154-0.178-7.19c1.937-2.032,5.15-2.115,7.19-0.179l61.616,58.624c2.033,1.937,2.116,5.155,0.179,7.19
					C1027.221,2527.288,1025.88,2527.817,1024.536,2527.817z"/>
				<path style="fill:#7E3B29;" d="M1088.745,2605.585c-1.262,0-2.52-0.464-3.506-1.4l-61.616-58.624
					c-2.033-1.937-2.116-5.155-0.179-7.19c1.94-2.033,5.151-2.115,7.191-0.179l61.616,58.624c2.032,1.937,2.116,5.154,0.179,7.19
					C1091.429,2605.056,1090.089,2605.585,1088.745,2605.585z"/>
				<path style="fill:#7E3B29;" d="M1027.128,2605.585c-1.344,0-2.684-0.53-3.685-1.579c-1.937-2.036-1.854-5.253,0.179-7.19
					l61.616-58.624c2.03-1.937,5.254-1.854,7.191,0.179c1.937,2.035,1.853,5.253-0.179,7.19l-61.616,58.624
					C1029.651,2605.121,1028.389,2605.585,1027.128,2605.585z"/>
				<path style="fill:#7E3B29;" d="M1088.745,2527.817c-1.262,0-2.52-0.463-3.506-1.4l-61.616-58.624
					c-2.033-1.936-2.116-5.154-0.179-7.19c1.94-2.032,5.151-2.115,7.191-0.179l61.616,58.624c2.032,1.937,2.116,5.155,0.179,7.19
					C1091.429,2527.288,1090.089,2527.817,1088.745,2527.817z"/>
				<path style="fill:#7E3B29;" d="M1027.128,2527.817c-1.344,0-2.684-0.53-3.685-1.58c-1.937-2.035-1.854-5.253,0.179-7.19
					l61.616-58.624c2.03-1.937,5.254-1.853,7.191,0.179c1.937,2.036,1.853,5.254-0.179,7.19l-61.616,58.624
					C1029.651,2527.354,1028.389,2527.817,1027.128,2527.817z"/>
			</g>
			<g>
				<path style="fill:#7E3B29;" d="M1156.14,2605.585c-1.261,0-2.519-0.464-3.505-1.4l-61.613-58.624
					c-2.033-1.937-2.116-5.155-0.179-7.19c1.94-2.033,5.151-2.115,7.19-0.179l61.614,58.624c2.032,1.937,2.115,5.154,0.178,7.19
					C1158.825,2605.056,1157.485,2605.585,1156.14,2605.585z"/>
				<path style="fill:#7E3B29;" d="M1094.528,2605.585c-1.344,0-2.685-0.53-3.684-1.579c-1.937-2.036-1.854-5.253,0.179-7.19
					l61.613-58.624c2.029-1.937,5.253-1.854,7.19,0.179c1.937,2.035,1.854,5.253-0.178,7.19l-61.614,58.624
					C1097.05,2605.121,1095.789,2605.585,1094.528,2605.585z"/>
				<path style="fill:#7E3B29;" d="M1156.14,2527.817c-1.261,0-2.519-0.463-3.505-1.4l-61.613-58.624
					c-2.033-1.936-2.116-5.154-0.179-7.19c1.94-2.032,5.151-2.115,7.19-0.179l61.614,58.624c2.032,1.937,2.115,5.155,0.178,7.19
					C1158.825,2527.288,1157.485,2527.817,1156.14,2527.817z"/>
				<path style="fill:#7E3B29;" d="M1220.349,2605.585c-1.261,0-2.519-0.464-3.505-1.4l-61.617-58.624
					c-2.032-1.937-2.116-5.155-0.179-7.19c1.937-2.033,5.151-2.115,7.191-0.179l61.616,58.624c2.033,1.937,2.116,5.154,0.179,7.19
					C1223.034,2605.056,1221.693,2605.585,1220.349,2605.585z"/>
				<path style="fill:#7E3B29;" d="M1158.732,2605.585c-1.344,0-2.684-0.53-3.684-1.579c-1.937-2.036-1.853-5.253,0.179-7.19
					l61.617-58.624c2.029-1.937,5.253-1.854,7.19,0.179c1.937,2.035,1.854,5.253-0.179,7.19l-61.616,58.624
					C1161.255,2605.121,1159.994,2605.585,1158.732,2605.585z"/>
				<path style="fill:#7E3B29;" d="M1220.349,2527.817c-1.261,0-2.519-0.463-3.505-1.4l-61.617-58.624
					c-2.032-1.936-2.116-5.154-0.179-7.19c1.937-2.032,5.151-2.115,7.191-0.179l61.616,58.624c2.033,1.937,2.116,5.155,0.179,7.19
					C1223.034,2527.288,1221.693,2527.817,1220.349,2527.817z"/>
				<path style="fill:#7E3B29;" d="M1158.732,2527.817c-1.344,0-2.684-0.53-3.684-1.58c-1.937-2.035-1.853-5.253,0.179-7.19
					l61.617-58.624c2.029-1.937,5.253-1.853,7.19,0.179c1.937,2.036,1.854,5.254-0.179,7.19l-61.616,58.624
					C1161.255,2527.354,1159.994,2527.817,1158.732,2527.817z"/>
			</g>
		</g>
		<g>
			<rect x="1236.501" y="3036.592" style="fill:#AC9179;" width="368.493" height="60.617"/>
			<path style="fill:#7E3B29;" d="M1604.996,3102.294H1236.5c-2.807,0-5.085-2.278-5.085-5.085v-60.619
				c0-2.807,2.278-5.085,5.085-5.085h368.496c2.807,0,5.085,2.278,5.085,5.085v60.619
				C1610.08,3100.017,1607.803,3102.294,1604.996,3102.294z M1241.585,3092.125h358.326v-50.451h-358.326V3092.125z"/>
		</g>
		<g>
			<rect x="64.02" y="3036.592" style="fill:#AC9179;" width="368.493" height="60.617"/>
			<path style="fill:#7E3B29;" d="M432.514,3102.294H64.02c-2.808,0-5.084-2.278-5.084-5.085v-60.619
				c0-2.807,2.275-5.085,5.084-5.085h368.495c2.808,0,5.085,2.278,5.085,5.085v60.619
				C437.599,3100.017,435.323,3102.294,432.514,3102.294z M69.105,3092.125H427.43v-50.451H69.105V3092.125z"/>
		</g>
		<g>
			<rect x="412.45" y="2330.71" style="fill:#A58C74;" width="842.271" height="64.606"/>
			<path style="fill:#7E3B29;" d="M1254.721,2400.401H412.449c-2.808,0-5.085-2.278-5.085-5.085v-64.605
				c0-2.807,2.277-5.085,5.085-5.085h842.271c2.807,0,5.085,2.278,5.085,5.085v64.605
				C1259.806,2398.123,1257.528,2400.401,1254.721,2400.401z M417.534,2390.231h832.102v-54.436H417.534V2390.231z"/>
		</g>
		<g>
			<rect x="412.45" y="2374.042" style="fill:#736251;" width="842.271" height="21.274"/>
		</g>
		<g>
			<g>
				<path style="fill:#7E3B29;" d="M903.178,611.886c-1.265,0-2.533-0.47-3.519-1.413l-64.261-61.584
					c-2.026-1.943-2.095-5.161-0.152-7.19c1.943-2.029,5.161-2.095,7.19-0.152l64.261,61.584c2.027,1.943,2.095,5.16,0.152,7.19
					C905.849,611.363,904.515,611.886,903.178,611.886z"/>
				<path style="fill:#7E3B29;" d="M838.917,611.886c-1.338,0-2.672-0.523-3.672-1.566c-1.943-2.03-1.873-5.247,0.152-7.19
					l64.261-61.584c2.029-1.943,5.244-1.876,7.19,0.152c1.943,2.029,1.874,5.247-0.152,7.19l-64.261,61.584
					C841.449,611.417,840.181,611.886,838.917,611.886z"/>
			</g>
			<g>
				<path style="fill:#7E3B29;" d="M903.178,677.38c-1.265,0-2.533-0.471-3.519-1.414l-64.261-61.583
					c-2.026-1.943-2.095-5.161-0.152-7.19c1.943-2.03,5.161-2.096,7.19-0.152l64.261,61.583c2.027,1.943,2.095,5.161,0.152,7.19
					C905.849,676.856,904.515,677.38,903.178,677.38z"/>
				<path style="fill:#7E3B29;" d="M838.917,677.38c-1.338,0-2.672-0.523-3.672-1.567c-1.943-2.029-1.873-5.247,0.152-7.19
					l64.261-61.583c2.029-1.944,5.244-1.878,7.19,0.152c1.943,2.029,1.874,5.247-0.152,7.19l-64.261,61.583
					C841.449,676.909,840.181,677.38,838.917,677.38z"/>
			</g>
			<g>
				<path style="fill:#7E3B29;" d="M903.178,748.738c-1.265,0-2.533-0.471-3.519-1.414l-64.261-61.583
					c-2.026-1.943-2.095-5.161-0.152-7.191c1.943-2.029,5.161-2.095,7.19-0.152l64.261,61.584c2.027,1.943,2.095,5.161,0.152,7.19
					C905.849,748.215,904.515,748.738,903.178,748.738z"/>
				<path style="fill:#7E3B29;" d="M838.917,748.738c-1.338,0-2.672-0.523-3.672-1.567c-1.943-2.029-1.873-5.247,0.152-7.19
					l64.261-61.584c2.029-1.943,5.244-1.876,7.19,0.152c1.943,2.03,1.874,5.248-0.152,7.191l-64.261,61.583
					C841.449,748.268,840.181,748.738,838.917,748.738z"/>
			</g>
			<g>
				<path style="fill:#7E3B29;" d="M910.279,825.963c-1.268,0-2.533-0.47-3.519-1.413l-71.362-68.426
					c-2.026-1.943-2.095-5.164-0.152-7.19c1.946-2.03,5.164-2.092,7.19-0.152l71.362,68.425c2.027,1.944,2.095,5.164,0.152,7.191
					C912.95,825.439,911.616,825.963,910.279,825.963z"/>
				<path style="fill:#7E3B29;" d="M838.917,819.12c-1.338,0-2.672-0.523-3.672-1.566c-1.943-2.03-1.873-5.248,0.152-7.191
					l64.261-61.583c2.029-1.944,5.244-1.881,7.19,0.152c1.943,2.029,1.874,5.247-0.152,7.19l-64.261,61.584
					C841.449,818.649,840.181,819.12,838.917,819.12z"/>
			</g>
			<g>
				<path style="fill:#7E3B29;" d="M910.279,900.254c-1.268,0-2.533-0.47-3.519-1.413l-71.362-68.426
					c-2.026-1.943-2.095-5.164-0.152-7.19c1.946-2.03,5.164-2.089,7.19-0.152l71.362,68.426c2.027,1.943,2.095,5.163,0.152,7.19
					C912.95,899.731,911.616,900.254,910.279,900.254z"/>
				<path style="fill:#7E3B29;" d="M838.917,893.412c-1.338,0-2.672-0.523-3.672-1.566c-1.943-2.03-1.873-5.247,0.152-7.191
					l64.261-61.582c2.029-1.946,5.244-1.881,7.19,0.152c1.943,2.029,1.874,5.247-0.152,7.19l-64.261,61.584
					C841.449,892.942,840.181,893.412,838.917,893.412z"/>
			</g>
			<g>
				<path style="fill:#7E3B29;" d="M917.455,968.68c-1.135,0-2.276-0.378-3.223-1.156l-78.542-64.515
					c-2.169-1.784-2.483-4.986-0.702-7.158c1.784-2.172,4.985-2.486,7.157-0.701l78.543,64.515c2.168,1.784,2.482,4.986,0.701,7.158
					C920.382,968.047,918.925,968.68,917.455,968.68z"/>
				<path style="fill:#7E3B29;" d="M838.92,965.747c-1.427,0-2.844-0.596-3.847-1.759c-1.84-2.122-1.608-5.333,0.517-7.17
					l74.553-64.515c2.119-1.848,5.336-1.609,7.171,0.516c1.84,2.122,1.608,5.334-0.517,7.171l-74.553,64.516
					C841.284,965.34,840.099,965.747,838.92,965.747z"/>
			</g>
			<g>
				<path style="fill:#7E3B29;" d="M927.36,1052.846c-1.109,0-2.227-0.361-3.161-1.105l-81.101-64.516
					c-2.198-1.748-2.563-4.945-0.815-7.144c1.751-2.195,4.953-2.563,7.144-0.814l81.102,64.515c2.198,1.748,2.562,4.945,0.814,7.144
					C930.34,1052.188,928.857,1052.846,927.36,1052.846z"/>
				<path style="fill:#7E3B29;" d="M846.266,1049.914c-1.453,0-2.893-0.62-3.9-1.818c-1.804-2.155-1.523-5.359,0.629-7.164
					l76.983-64.516c2.155-1.804,5.359-1.52,7.164,0.629c1.804,2.155,1.523,5.359-0.629,7.164l-76.983,64.515
					C848.576,1049.522,847.417,1049.914,846.266,1049.914z"/>
			</g>
			<g>
				<path style="fill:#7E3B29;" d="M936.507,1129.842c-0.973,0-1.959-0.278-2.827-0.86l-90.063-60.359
					c-2.333-1.562-2.956-4.72-1.393-7.054c1.562-2.334,4.727-2.956,7.054-1.394l90.063,60.358c2.333,1.562,2.956,4.72,1.393,7.055
					C939.755,1129.051,938.145,1129.842,936.507,1129.842z"/>
				<path style="fill:#7E3B29;" d="M848.838,1131.011c-1.443,0-2.877-0.609-3.884-1.797c-1.813-2.142-1.548-5.35,0.593-7.167
					l80.615-68.347c2.138-1.81,5.35-1.552,7.166,0.593c1.814,2.141,1.549,5.35-0.592,7.167l-80.615,68.346
					C851.168,1130.614,849.999,1131.011,848.838,1131.011z"/>
			</g>
			<g>
				<path style="fill:#7E3B29;" d="M943.461,1201.201c-0.947,0-1.9-0.262-2.75-0.811l-93.605-60.358
					c-2.36-1.524-3.042-4.668-1.519-7.028c1.526-2.368,4.677-3.039,7.028-1.52l93.605,60.358c2.36,1.523,3.042,4.668,1.52,7.028
					C946.765,1200.38,945.13,1201.201,943.461,1201.201z"/>
				<path style="fill:#7E3B29;" d="M852.347,1202.37c-1.477,0-2.939-0.639-3.943-1.87c-1.774-2.176-1.45-5.38,0.725-7.154
					L932.911,1125c2.179-1.784,5.386-1.45,7.154,0.725c1.775,2.175,1.45,5.379-0.725,7.153l-83.782,68.347
					C854.615,1201.995,853.476,1202.37,852.347,1202.37z"/>
			</g>
			<g>
				<path style="fill:#7E3B29;" d="M948.491,1272.559c-0.937,0-1.884-0.258-2.731-0.798l-94.611-60.358
					c-2.368-1.51-3.063-4.655-1.553-7.021c1.513-2.367,4.654-3.059,7.021-1.553l94.611,60.358c2.367,1.51,3.061,4.655,1.553,7.022
					C951.81,1271.729,950.169,1272.559,948.491,1272.559z"/>
				<path style="fill:#7E3B29;" d="M856.392,1273.728c-1.483,0-2.956-0.646-3.96-1.891c-1.764-2.184-1.423-5.389,0.761-7.15
					l84.69-68.35c2.185-1.764,5.389-1.423,7.151,0.761c1.764,2.185,1.423,5.389-0.761,7.15l-84.69,68.35
					C858.643,1273.361,857.514,1273.728,856.392,1273.728z"/>
			</g>
			<g>
				<path style="fill:#7E3B29;" d="M962.52,1348.758c-0.993,0-1.995-0.287-2.877-0.893l-101.231-69.547
					c-2.314-1.589-2.901-4.758-1.311-7.071c1.596-2.311,4.753-2.901,7.071-1.312l101.232,69.548c2.314,1.589,2.9,4.758,1.311,7.071
					C965.728,1347.987,964.139,1348.758,962.52,1348.758z"/>
				<path style="fill:#7E3B29;" d="M863.549,1340.737c-1.592,0-3.158-0.744-4.151-2.141c-1.626-2.29-1.086-5.465,1.205-7.091
					l88.208-62.566c2.287-1.622,5.462-1.089,7.091,1.204c1.626,2.292,1.085,5.465-1.205,7.091l-88.208,62.567
					C865.595,1340.432,864.569,1340.737,863.549,1340.737z"/>
			</g>
			<g>
				<path style="fill:#7E3B29;" d="M972.491,1432.905c-1.007,0-2.02-0.295-2.907-0.914l-108.541-75.695
					c-2.3-1.605-2.866-4.777-1.261-7.081c1.609-2.308,4.777-2.874,7.081-1.262l108.541,75.695c2.301,1.606,2.867,4.777,1.262,7.082
					C975.675,1432.146,974.096,1432.905,972.491,1432.905z"/>
				<path style="fill:#7E3B29;" d="M866.333,1431.061c-1.475,0-2.936-0.639-3.942-1.871c-1.775-2.175-1.451-5.379,0.725-7.153
					l94.998-77.516c2.175-1.784,5.376-1.45,7.153,0.725c1.775,2.175,1.451,5.38-0.725,7.153l-94.998,77.516
					C868.601,1430.687,867.462,1431.061,866.333,1431.061z"/>
			</g>
			<g>
				<path style="fill:#7E3B29;" d="M984.455,1519.845c-1.01,0-2.027-0.298-2.914-0.92l-114.92-80.482
					c-2.301-1.608-2.86-4.78-1.248-7.08c1.613-2.304,4.787-2.858,7.082-1.248l114.92,80.482c2.3,1.609,2.86,4.781,1.247,7.081
					C987.632,1519.09,986.057,1519.845,984.455,1519.845z"/>
				<path style="fill:#7E3B29;" d="M873.589,1529.415c-1.297,0-2.595-0.493-3.588-1.483c-1.989-1.979-1.997-5.201-0.013-7.19
					l93.32-93.721c1.979-1.989,5.197-1.995,7.19-0.013c1.99,1.979,1.997,5.201,0.013,7.19l-93.319,93.72
					C876.198,1528.916,874.894,1529.415,873.589,1529.415z"/>
			</g>
			<g>
				<path style="fill:#7E3B29;" d="M1002.003,1614.761c-0.964,0-1.94-0.272-2.801-0.845l-125.291-82.875
					c-2.344-1.55-2.986-4.704-1.437-7.044c1.546-2.347,4.711-2.996,7.045-1.437l125.291,82.875c2.343,1.549,2.985,4.704,1.436,7.044
					C1005.27,1613.959,1003.651,1614.761,1002.003,1614.761z"/>
				<path style="fill:#7E3B29;" d="M880.77,1621.937c-1.381,0-2.758-0.559-3.761-1.661c-1.891-2.076-1.738-5.294,0.337-7.183
					l106.88-97.309c2.072-1.889,5.293-1.734,7.183,0.338c1.89,2.076,1.738,5.294-0.338,7.183l-106.879,97.31
					C883.219,1621.501,881.992,1621.937,880.77,1621.937z"/>
			</g>
			<g>
				<path style="fill:#7E3B29;" d="M1013.967,1708.878c-0.964,0-1.94-0.271-2.801-0.845l-125.291-82.875
					c-2.344-1.548-2.986-4.704-1.437-7.044c1.546-2.347,4.711-2.993,7.045-1.437l125.291,82.875c2.343,1.55,2.985,4.704,1.436,7.045
					C1017.234,1708.077,1015.615,1708.878,1013.967,1708.878z"/>
				<path style="fill:#7E3B29;" d="M892.734,1716.055c-1.381,0-2.758-0.56-3.761-1.662c-1.891-2.076-1.738-5.293,0.337-7.183
					l106.88-97.308c2.075-1.887,5.296-1.738,7.183,0.337c1.89,2.076,1.738,5.294-0.338,7.184l-106.879,97.308
					C895.183,1715.618,893.955,1716.055,892.734,1716.055z"/>
			</g>
			<g>
				<path style="fill:#7E3B29;" d="M1030.955,1790.217c-0.828,0-1.665-0.202-2.439-0.625l-131.654-72.187
					c-2.463-1.35-3.366-4.443-2.016-6.901c1.354-2.471,4.446-3.364,6.903-2.017l131.653,72.187c2.463,1.351,3.367,4.443,2.017,6.902
					C1034.49,1789.264,1032.749,1790.217,1030.955,1790.217z"/>
				<path style="fill:#7E3B29;" d="M903.568,1796.471c-1.54,0-3.063-0.698-4.062-2.022c-1.692-2.241-1.245-5.429,0.996-7.121
					l112.308-84.758c2.238-1.692,5.426-1.248,7.121,0.996c1.691,2.241,1.245,5.429-0.996,7.12l-112.309,84.759
					C905.71,1796.136,904.634,1796.471,903.568,1796.471z"/>
			</g>
		</g>
		<g>
			<g>
				<path style="fill:#7E3B29;" d="M765.701,611.886c-1.338,0-2.672-0.523-3.672-1.566c-1.943-2.03-1.873-5.247,0.152-7.19
					l64.261-61.584c2.03-1.943,5.244-1.876,7.19,0.152c1.944,2.029,1.874,5.247-0.152,7.19l-64.261,61.584
					C768.233,611.417,766.965,611.886,765.701,611.886z"/>
				<path style="fill:#7E3B29;" d="M829.962,611.886c-1.265,0-2.533-0.47-3.519-1.413l-64.261-61.584
					c-2.026-1.943-2.095-5.161-0.152-7.19s5.161-2.095,7.19-0.152l64.261,61.584c2.027,1.943,2.096,5.16,0.152,7.19
					C832.633,611.363,831.299,611.886,829.962,611.886z"/>
			</g>
			<g>
				<path style="fill:#7E3B29;" d="M765.701,677.38c-1.338,0-2.672-0.523-3.672-1.567c-1.943-2.029-1.873-5.247,0.152-7.19
					l64.261-61.583c2.03-1.944,5.244-1.878,7.19,0.152c1.944,2.029,1.874,5.247-0.152,7.19l-64.261,61.583
					C768.233,676.909,766.965,677.38,765.701,677.38z"/>
				<path style="fill:#7E3B29;" d="M829.962,677.38c-1.265,0-2.533-0.471-3.519-1.414l-64.261-61.583
					c-2.026-1.943-2.095-5.161-0.152-7.19c1.943-2.03,5.161-2.096,7.19-0.152l64.261,61.583c2.027,1.943,2.096,5.161,0.152,7.19
					C832.633,676.856,831.299,677.38,829.962,677.38z"/>
			</g>
			<g>
				<path style="fill:#7E3B29;" d="M765.701,748.738c-1.338,0-2.672-0.523-3.672-1.567c-1.943-2.029-1.873-5.247,0.152-7.19
					l64.261-61.584c2.03-1.943,5.244-1.876,7.19,0.152c1.944,2.03,1.874,5.248-0.152,7.191l-64.261,61.583
					C768.233,748.268,766.965,748.738,765.701,748.738z"/>
				<path style="fill:#7E3B29;" d="M829.962,748.738c-1.265,0-2.533-0.471-3.519-1.414l-64.261-61.583
					c-2.026-1.943-2.095-5.161-0.152-7.191c1.943-2.029,5.161-2.095,7.19-0.152l64.261,61.584c2.027,1.943,2.096,5.161,0.152,7.19
					C832.633,748.215,831.299,748.738,829.962,748.738z"/>
			</g>
			<g>
				<path style="fill:#7E3B29;" d="M758.6,825.963c-1.337,0-2.672-0.523-3.672-1.566c-1.943-2.027-1.873-5.247,0.152-7.191
					l71.362-68.425c2.03-1.944,5.244-1.881,7.19,0.152c1.944,2.026,1.874,5.247-0.152,7.19l-71.362,68.426
					C761.132,825.493,759.865,825.963,758.6,825.963z"/>
				<path style="fill:#7E3B29;" d="M829.962,819.12c-1.265,0-2.533-0.471-3.519-1.413l-64.261-61.584
					c-2.026-1.943-2.095-5.161-0.152-7.19c1.943-2.033,5.161-2.096,7.19-0.152l64.261,61.583c2.027,1.943,2.096,5.161,0.152,7.191
					C832.633,818.597,831.299,819.12,829.962,819.12z"/>
			</g>
			<g>
				<path style="fill:#7E3B29;" d="M758.6,900.254c-1.337,0-2.672-0.523-3.672-1.565c-1.943-2.027-1.873-5.247,0.152-7.19
					l71.362-68.426c2.03-1.946,5.244-1.881,7.19,0.152c1.944,2.026,1.874,5.247-0.152,7.19l-71.362,68.426
					C761.132,899.784,759.865,900.254,758.6,900.254z"/>
				<path style="fill:#7E3B29;" d="M829.962,893.412c-1.265,0-2.533-0.47-3.519-1.413l-64.261-61.584
					c-2.026-1.943-2.095-5.161-0.152-7.19c1.943-2.033,5.161-2.099,7.19-0.152l64.261,61.582c2.027,1.944,2.096,5.161,0.152,7.191
					C832.633,892.888,831.299,893.412,829.962,893.412z"/>
			</g>
			<g>
				<path style="fill:#7E3B29;" d="M751.423,968.68c-1.47,0-2.926-0.633-3.933-1.857c-1.781-2.172-1.466-5.373,0.702-7.158
					l78.542-64.515c2.175-1.784,5.372-1.47,7.157,0.701c1.781,2.171,1.467,5.373-0.701,7.158l-78.542,64.515
					C753.701,968.302,752.559,968.68,751.423,968.68z"/>
				<path style="fill:#7E3B29;" d="M829.959,965.747c-1.178,0-2.364-0.407-3.324-1.242l-74.553-64.516
					c-2.125-1.837-2.357-5.048-0.517-7.171c1.831-2.125,5.048-2.363,7.17-0.516l74.553,64.515c2.125,1.838,2.357,5.048,0.517,7.17
					C832.803,965.151,831.385,965.747,829.959,965.747z"/>
			</g>
			<g>
				<path style="fill:#7E3B29;" d="M741.518,1052.846c-1.526,0-3.032-0.682-4.035-1.986c-1.711-2.228-1.294-5.419,0.933-7.131
					l89.801-68.995c2.227-1.702,5.415-1.294,7.131,0.934c1.711,2.227,1.294,5.418-0.934,7.131l-89.801,68.994
					C743.69,1052.502,742.6,1052.846,741.518,1052.846z"/>
				<path style="fill:#7E3B29;" d="M822.613,1049.914c-1.152,0-2.311-0.391-3.264-1.189l-76.983-64.515
					c-2.151-1.805-2.433-5.009-0.628-7.164c1.804-2.149,5.009-2.433,7.163-0.629l76.983,64.516c2.152,1.805,2.433,5.009,0.629,7.164
					C825.506,1049.294,824.066,1049.914,822.613,1049.914z"/>
			</g>
			<g>
				<path style="fill:#7E3B29;" d="M732.372,1129.842c-1.639,0-3.247-0.791-4.227-2.254c-1.562-2.334-0.94-5.492,1.393-7.055
					l90.063-60.358c2.327-1.565,5.492-0.94,7.055,1.394c1.562,2.333,0.939,5.491-1.394,7.054l-90.062,60.359
					C734.332,1129.564,733.345,1129.842,732.372,1129.842z"/>
				<path style="fill:#7E3B29;" d="M820.04,1131.011c-1.161,0-2.33-0.397-3.283-1.205l-80.615-68.346
					c-2.141-1.818-2.406-5.026-0.592-7.167c1.814-2.149,5.028-2.406,7.167-0.593l80.614,68.347c2.142,1.818,2.407,5.025,0.593,7.167
					C822.917,1130.402,821.485,1131.011,820.04,1131.011z"/>
			</g>
			<g>
				<path style="fill:#7E3B29;" d="M725.417,1201.201c-1.669,0-3.304-0.82-4.277-2.33c-1.523-2.36-0.841-5.505,1.519-7.028
					l93.605-60.358c2.35-1.52,5.502-0.848,7.028,1.52c1.523,2.36,0.841,5.504-1.52,7.028l-93.605,60.358
					C727.317,1200.939,726.364,1201.201,725.417,1201.201z"/>
				<path style="fill:#7E3B29;" d="M816.532,1202.37c-1.129,0-2.268-0.374-3.21-1.145l-83.784-68.347
					c-2.175-1.775-2.499-4.979-0.725-7.153c1.768-2.171,4.975-2.506,7.154-0.725l83.782,68.346c2.175,1.775,2.5,4.979,0.725,7.154
					C819.472,1201.731,818.008,1202.37,816.532,1202.37z"/>
			</g>
			<g>
				<path style="fill:#7E3B29;" d="M720.389,1272.559c-1.679,0-3.321-0.831-4.29-2.35c-1.51-2.367-0.815-5.512,1.552-7.022
					l94.612-60.358c2.363-1.507,5.512-0.814,7.021,1.553c1.509,2.367,0.814,5.512-1.553,7.021l-94.612,60.358
					C722.272,1272.301,721.325,1272.559,720.389,1272.559z"/>
				<path style="fill:#7E3B29;" d="M812.487,1273.728c-1.123,0-2.252-0.368-3.191-1.129l-84.69-68.35
					c-2.185-1.761-2.526-4.965-0.761-7.15c1.761-2.191,4.968-2.528,7.15-0.761l84.69,68.35c2.184,1.761,2.525,4.966,0.761,7.15
					C815.442,1273.083,813.97,1273.728,812.487,1273.728z"/>
			</g>
			<g>
				<path style="fill:#7E3B29;" d="M706.359,1348.758c-1.618,0-3.207-0.771-4.194-2.205c-1.589-2.313-1.004-5.482,1.31-7.071
					l101.235-69.548c2.317-1.589,5.482-0.999,7.071,1.312c1.589,2.313,1.003,5.482-1.31,7.071l-101.235,69.547
					C708.355,1348.47,707.352,1348.758,706.359,1348.758z"/>
				<path style="fill:#7E3B29;" d="M805.329,1340.737c-1.02,0-2.046-0.305-2.939-0.936l-88.209-62.567
					c-2.291-1.626-2.83-4.8-1.205-7.091c1.629-2.294,4.801-2.827,7.091-1.204l88.209,62.566c2.29,1.626,2.83,4.801,1.204,7.091
					C808.487,1339.992,806.922,1340.737,805.329,1340.737z"/>
			</g>
			<g>
				<path style="fill:#7E3B29;" d="M696.388,1432.905c-1.606,0-3.185-0.758-4.174-2.175c-1.606-2.304-1.04-5.475,1.261-7.082
					l108.541-75.695c2.304-1.605,5.472-1.046,7.08,1.262c1.606,2.303,1.04,5.475-1.261,7.081l-108.541,75.695
					C698.408,1432.61,697.394,1432.905,696.388,1432.905z"/>
				<path style="fill:#7E3B29;" d="M802.546,1431.061c-1.129,0-2.268-0.374-3.212-1.146l-94.998-77.516
					c-2.175-1.774-2.5-4.979-0.725-7.153c1.775-2.175,4.979-2.506,7.153-0.725l94.999,77.516c2.175,1.775,2.498,4.979,0.725,7.153
					C805.482,1430.422,804.022,1431.061,802.546,1431.061z"/>
			</g>
			<g>
				<path style="fill:#7E3B29;" d="M684.425,1519.845c-1.603,0-3.178-0.755-4.168-2.168c-1.613-2.3-1.053-5.472,1.248-7.081
					l114.92-80.482c2.297-1.609,5.469-1.056,7.08,1.248c1.613,2.3,1.053,5.472-1.248,7.08l-114.92,80.482
					C686.45,1519.547,685.434,1519.845,684.425,1519.845z"/>
				<path style="fill:#7E3B29;" d="M795.289,1529.415c-1.305,0-2.609-0.5-3.602-1.496l-93.319-93.72
					c-1.983-1.989-1.976-5.21,0.013-7.19c1.993-1.983,5.21-1.976,7.19,0.013l93.321,93.721c1.983,1.989,1.976,5.21-0.014,7.19
					C797.884,1528.922,796.587,1529.415,795.289,1529.415z"/>
			</g>
			<g>
				<path style="fill:#7E3B29;" d="M666.88,1614.761c-1.65,0-3.267-0.802-4.246-2.282c-1.548-2.34-0.907-5.495,1.436-7.044
					l125.291-82.875c2.33-1.559,5.495-0.91,7.044,1.437c1.549,2.34,0.907,5.495-1.437,7.044l-125.288,82.875
					C668.816,1614.489,667.843,1614.761,666.88,1614.761z"/>
				<path style="fill:#7E3B29;" d="M788.109,1621.937c-1.226,0-2.45-0.436-3.423-1.323l-106.88-97.31
					c-2.075-1.889-2.227-5.107-0.338-7.183c1.894-2.078,5.115-2.221,7.184-0.338l106.879,97.309
					c2.075,1.889,2.227,5.107,0.338,7.183C790.866,1621.378,789.489,1621.937,788.109,1621.937z"/>
			</g>
			<g>
				<path style="fill:#7E3B29;" d="M654.916,1708.878c-1.65,0-3.267-0.801-4.246-2.281c-1.548-2.341-0.907-5.496,1.436-7.045
					l125.291-82.875c2.33-1.556,5.498-0.91,7.044,1.437c1.549,2.34,0.907,5.496-1.437,7.044l-125.288,82.875
					C656.852,1708.607,655.879,1708.878,654.916,1708.878z"/>
				<path style="fill:#7E3B29;" d="M776.145,1716.055c-1.226,0-2.45-0.438-3.423-1.324l-106.878-97.308
					c-2.077-1.891-2.228-5.109-0.338-7.184c1.892-2.078,5.101-2.23,7.186-0.337l106.876,97.308c2.075,1.89,2.227,5.107,0.338,7.183
					C778.902,1715.496,777.525,1716.055,776.145,1716.055z"/>
			</g>
			<g>
				<path style="fill:#7E3B29;" d="M637.925,1790.217c-1.798,0-3.539-0.953-4.464-2.641c-1.349-2.46-0.449-5.551,2.014-6.902
					l131.656-72.187c2.45-1.347,5.548-0.454,6.902,2.017c1.351,2.459,0.447,5.551-2.016,6.901l-131.652,72.187
					C639.588,1790.016,638.751,1790.217,637.925,1790.217z"/>
				<path style="fill:#7E3B29;" d="M765.31,1796.471c-1.066,0-2.141-0.335-3.058-1.026l-112.31-84.759
					c-2.241-1.691-2.686-4.879-0.995-7.12c1.694-2.244,4.881-2.688,7.123-0.996l112.306,84.758c2.241,1.692,2.688,4.88,0.996,7.121
					C768.372,1795.773,766.85,1796.471,765.31,1796.471z"/>
			</g>
		</g>
		<path style="fill:#7E3B29;" d="M1077.373,1982.856c-1.023,0-2.056-0.308-2.953-0.947l-167.495-119.64
			c-2.284-1.632-2.814-4.807-1.182-7.094c1.635-2.281,4.807-2.811,7.094-1.182l167.495,119.64c2.284,1.632,2.814,4.806,1.182,7.094
			C1080.521,1982.114,1078.959,1982.856,1077.373,1982.856z"/>
		<path style="fill:#7E3B29;" d="M930.221,1984.05c-1.278,0-2.553-0.476-3.543-1.437c-2.016-1.956-2.062-5.174-0.105-7.19
			l118.445-122.034c1.957-2.013,5.175-2.063,7.191-0.106c2.016,1.957,2.062,5.174,0.105,7.19l-118.445,122.035
			C932.871,1983.534,931.548,1984.05,930.221,1984.05z"/>
		<path style="fill:#7E3B29;" d="M592.439,1982.856c-1.588,0-3.15-0.739-4.143-2.128c-1.632-2.288-1.102-5.462,1.182-7.094
			l167.497-119.64c2.29-1.629,5.462-1.106,7.094,1.182c1.632,2.287,1.102,5.462-1.182,7.094l-167.497,119.64
			C594.493,1982.548,593.462,1982.856,592.439,1982.856z"/>
		<path style="fill:#7E3B29;" d="M739.592,1984.05c-1.328,0-2.652-0.516-3.648-1.542L617.5,1860.474
			c-1.957-2.016-1.909-5.233,0.106-7.19c2.014-1.957,5.234-1.91,7.19,0.106l118.444,122.034c1.957,2.016,1.911,5.234-0.106,7.19
			C742.144,1983.574,740.87,1984.05,739.592,1984.05z"/>
		<g>
			<path style="fill:#7E3B29;" d="M1110.447,2116.793c-0.814,0-1.639-0.195-2.403-0.606l-171.726-92.303
				c-2.473-1.331-3.402-4.413-2.072-6.885c1.331-2.473,4.422-3.386,6.885-2.073l171.726,92.304c2.473,1.331,3.402,4.413,2.072,6.885
				C1114.013,2115.824,1112.258,2116.793,1110.447,2116.793z"/>
			<path style="fill:#7E3B29;" d="M959.58,2117.714c-1.519,0-3.02-0.676-4.022-1.97c-1.722-2.219-1.318-5.413,0.904-7.134
				l121.434-94.147c2.225-1.718,5.416-1.318,7.134,0.904c1.721,2.218,1.318,5.412-0.904,7.134l-121.434,94.147
				C961.765,2117.366,960.669,2117.714,959.58,2117.714z"/>
			<path style="fill:#7E3B29;" d="M1167.105,2325.026c-0.841,0-1.692-0.208-2.476-0.646l-192.621-107.677
				c-2.453-1.37-3.331-4.469-1.96-6.918c1.374-2.457,4.479-3.317,6.919-1.96l192.621,107.677c2.453,1.371,3.331,4.469,1.96,6.919
				C1170.613,2324.09,1168.886,2325.026,1167.105,2325.026z"/>
			<path style="fill:#7E3B29;" d="M1003.846,2328.284c-1.44,0-2.87-0.606-3.876-1.788c-1.821-2.138-1.562-5.35,0.576-7.171
				l134.551-114.522c2.142-1.821,5.35-1.559,7.171,0.576c1.821,2.138,1.562,5.35-0.576,7.171l-134.551,114.522
				C1006.184,2327.887,1005.012,2328.284,1003.846,2328.284z"/>
			<path style="fill:#7E3B29;" d="M1139.588,2210.173c-0.747,0-1.509-0.165-2.227-0.516l-184.12-89.969
				c-2.526-1.232-3.569-4.278-2.338-6.8c1.232-2.52,4.274-3.576,6.799-2.338l184.12,89.97c2.526,1.231,3.569,4.277,2.338,6.8
				C1143.28,2209.124,1141.469,2210.173,1139.588,2210.173z"/>
			<path style="fill:#7E3B29;" d="M976.328,2213.427c-1.616,0-3.208-0.771-4.195-2.205c-1.589-2.314-1.003-5.479,1.311-7.071
				l136.947-94.181c2.307-1.583,5.478-1.004,7.071,1.31c1.589,2.314,1.003,5.479-1.311,7.071l-136.947,94.181
				C978.326,2213.135,977.321,2213.427,976.328,2213.427z"/>
			<path style="fill:#7E3B29;" d="M1084.553,2326.225c-2.26,0-4.327-1.52-4.919-3.81l-77.768-300.299
				c-0.705-2.717,0.931-5.491,3.648-6.197c2.731-0.688,5.496,0.934,6.197,3.648l77.768,300.298c0.706,2.718-0.93,5.492-3.648,6.198
				C1085.405,2326.171,1084.974,2326.225,1084.553,2326.225z"/>
		</g>
		<g>
			<path style="fill:#7E3B29;" d="M562.286,2116.793c-1.812,0-3.565-0.969-4.483-2.677c-1.33-2.473-0.403-5.554,2.072-6.885
				l171.726-92.304c2.466-1.314,5.558-0.4,6.885,2.073c1.331,2.473,0.401,5.555-2.072,6.885l-171.727,92.303
				C563.923,2116.598,563.099,2116.793,562.286,2116.793z"/>
			<path style="fill:#7E3B29;" d="M713.152,2117.714c-1.089,0-2.184-0.348-3.112-1.066l-121.434-94.147
				c-2.22-1.722-2.624-4.917-0.904-7.134c1.723-2.225,4.915-2.622,7.134-0.904l121.434,94.147c2.222,1.721,2.625,4.915,0.904,7.134
				C716.171,2117.039,714.668,2117.714,713.152,2117.714z"/>
			<path style="fill:#7E3B29;" d="M505.628,2325.026c-1.782,0-3.512-0.936-4.443-2.604c-1.371-2.45-0.494-5.548,1.957-6.919
				l192.622-107.677c2.45-1.357,5.545-0.497,6.919,1.96c1.372,2.449,0.493,5.548-1.959,6.918l-192.619,107.677
				C507.321,2324.818,506.468,2325.026,505.628,2325.026z"/>
			<path style="fill:#7E3B29;" d="M668.887,2328.284c-1.166,0-2.338-0.397-3.294-1.212L531.041,2212.55
				c-2.138-1.821-2.397-5.032-0.576-7.171c1.819-2.138,5.03-2.396,7.166-0.576l134.554,114.522c2.139,1.821,2.397,5.032,0.577,7.171
				C671.755,2327.678,670.325,2328.284,668.887,2328.284z"/>
			<path style="fill:#7E3B29;" d="M533.143,2210.173c-1.882,0-3.689-1.045-4.571-2.853c-1.233-2.522-0.188-5.569,2.335-6.8
				l184.121-89.97c2.523-1.239,5.568-0.189,6.799,2.338c1.232,2.522,0.189,5.567-2.337,6.8l-184.119,89.969
				C534.655,2210.008,533.893,2210.173,533.143,2210.173z"/>
			<path style="fill:#7E3B29;" d="M696.404,2213.427c-0.993,0-1.996-0.292-2.877-0.894l-136.948-94.181
				c-2.314-1.591-2.899-4.757-1.308-7.071c1.591-2.311,4.759-2.893,7.072-1.31l136.945,94.181c2.314,1.592,2.9,4.757,1.312,7.071
				C699.613,2212.656,698.02,2213.427,696.404,2213.427z"/>
			<path style="fill:#7E3B29;" d="M588.178,2326.225c-0.421,0-0.85-0.054-1.277-0.162c-2.719-0.705-4.351-3.479-3.648-6.198
				l77.767-300.298c0.707-2.717,3.488-4.336,6.198-3.648c2.719,0.706,4.351,3.48,3.648,6.197l-77.768,300.299
				C592.503,2324.706,590.439,2326.225,588.178,2326.225z"/>
		</g>
		<path style="fill:#7E3B29;" d="M1005.194,1661.818H655.845c-2.81,0-5.085-2.278-5.085-5.085c0-2.807,2.275-5.085,5.085-5.085
			h349.349c2.807,0,5.085,2.277,5.085,5.085C1010.279,1659.541,1008.001,1661.818,1005.194,1661.818z"/>
		<path style="fill:#7E3B29;" d="M1005.194,1661.818H655.845c-2.81,0-5.085-2.278-5.085-5.085c0-2.807,2.275-5.085,5.085-5.085
			h349.349c2.807,0,5.085,2.277,5.085,5.085C1010.279,1659.541,1008.001,1661.818,1005.194,1661.818z"/>
		<path style="fill:#7E3B29;" d="M981.693,1519.845H682.236c-2.807,0-5.085-2.278-5.085-5.085c0-2.806,2.277-5.084,5.085-5.084
			h299.457c2.807,0,5.085,2.278,5.085,5.084C986.778,1517.567,984.501,1519.845,981.693,1519.845z"/>
		<path style="fill:#7E3B29;" d="M981.693,1519.845H682.236c-2.807,0-5.085-2.278-5.085-5.085c0-2.806,2.277-5.084,5.085-5.084
			h299.457c2.807,0,5.085,2.278,5.085,5.084C986.778,1517.567,984.501,1519.845,981.693,1519.845z"/>
		<path style="fill:#7E3B29;" d="M981.693,1519.845H682.236c-2.807,0-5.085-2.278-5.085-5.085c0-2.806,2.277-5.084,5.085-5.084
			h299.457c2.807,0,5.085,2.278,5.085,5.084C986.778,1517.567,984.501,1519.845,981.693,1519.845z"/>
		<path style="fill:#7E3B29;" d="M959.431,1351.076h-252.47c-2.807,0-5.085-2.278-5.085-5.085s2.278-5.085,5.085-5.085h252.47
			c2.807,0,5.085,2.278,5.085,5.085S962.239,1351.076,959.431,1351.076z"/>
		<path style="fill:#7E3B29;" d="M935.556,1205.911H725.255c-2.807,0-5.085-2.278-5.085-5.085c0-2.807,2.278-5.085,5.085-5.085
			h210.302c2.807,0,5.085,2.278,5.085,5.085C940.641,1203.634,938.364,1205.911,935.556,1205.911z"/>
		<path style="fill:#7E3B29;" d="M925.632,1059.152H735.924c-2.807,0-5.085-2.277-5.085-5.085c0-2.807,2.278-5.085,5.085-5.085
			h189.708c2.807,0,5.085,2.278,5.085,5.085C930.717,1056.875,928.44,1059.152,925.632,1059.152z"/>
		<path style="fill:#7E3B29;" d="M912.807,864.138H754.231c-2.807,0-5.085-2.278-5.085-5.085c0-2.807,2.278-5.085,5.085-5.085
			h158.577c2.807,0,5.085,2.278,5.085,5.085C917.892,861.86,915.615,864.138,912.807,864.138z"/>
		<path style="fill:#7E3B29;" d="M904.273,683.48H766.717c-2.806,0-5.084-2.278-5.084-5.085s2.278-5.085,5.084-5.085h137.556
			c2.807,0,5.085,2.278,5.085,5.085S907.08,683.48,904.273,683.48z"/>
		<path style="fill:#7E3B29;" d="M778.274,1791.429c-1.136,0-2.278-0.377-3.221-1.155c-2.171-1.781-2.49-4.985-0.705-7.153
			l104.085-126.822c1.778-2.171,4.988-2.489,7.153-0.704c2.172,1.781,2.49,4.985,0.706,7.153l-104.086,126.821
			C781.203,1790.794,779.743,1791.429,778.274,1791.429z"/>
		<path style="fill:#7E3B29;" d="M896.723,1792.624c-1.457,0-2.904-0.623-3.91-1.83l-107.678-129.212
			c-1.797-2.154-1.505-5.363,0.653-7.16c2.154-1.794,5.359-1.51,7.16,0.652l107.677,129.211c1.798,2.155,1.507,5.363-0.652,7.161
			C899.023,1792.237,897.871,1792.624,896.723,1792.624z"/>
		<path style="fill:#7E3B29;" d="M789.089,1656.234c-0.934,0-1.878-0.255-2.725-0.794c-2.371-1.507-3.069-4.649-1.562-7.018
			l80.607-126.817c1.503-2.368,4.647-3.066,7.018-1.563c2.37,1.507,3.069,4.649,1.562,7.018l-80.607,126.817
			C792.415,1655.399,790.767,1656.234,789.089,1656.234z"/>
		<path style="fill:#7E3B29;" d="M880.823,1657.431c-1.669,0-3.304-0.821-4.277-2.327l-83.388-129.211
			c-1.523-2.361-0.845-5.508,1.516-7.032c2.36-1.52,5.508-0.844,7.031,1.516l83.388,129.212c1.523,2.36,0.845,5.508-1.516,7.031
			C882.723,1657.17,881.77,1657.431,880.823,1657.431z"/>
		<path style="fill:#7E3B29;" d="M806.627,1510.079c-0.566,0-1.142-0.092-1.705-0.295c-2.644-0.939-4.025-3.85-3.085-6.495
			l55.092-154.849c0.94-2.645,3.85-4.042,6.495-3.085c2.644,0.94,4.025,3.85,3.085,6.495L811.417,1506.7
			C810.676,1508.782,808.719,1510.079,806.627,1510.079z"/>
		<path style="fill:#7E3B29;" d="M869.316,1511.543c-2.082,0-4.035-1.288-4.784-3.357l-56.992-157.773
			c-0.953-2.641,0.414-5.555,3.056-6.511c2.638-0.961,5.555,0.42,6.511,3.055l56.992,157.772c0.953,2.642-0.414,5.556-3.056,6.512
			C870.474,1511.447,869.888,1511.543,869.316,1511.543z"/>
		<path style="fill:#7E3B29;" d="M816.727,1342.323c-0.427,0-0.864-0.053-1.294-0.165c-2.717-0.715-4.34-3.496-3.628-6.211
			l34.878-132.719c0.715-2.715,3.502-4.334,6.211-3.629c2.717,0.715,4.34,3.496,3.628,6.211l-34.878,132.719
			C821.041,1340.813,818.982,1342.323,816.727,1342.323z"/>
		<path style="fill:#7E3B29;" d="M856.409,1343.574c-2.248,0-4.303-1.499-4.909-3.773l-36.08-135.223
			c-0.725-2.714,0.887-5.499,3.602-6.224c2.72-0.711,5.502,0.888,6.224,3.602l36.08,135.223c0.725,2.714-0.888,5.498-3.602,6.223
			C857.282,1343.518,856.843,1343.574,856.409,1343.574z"/>
		<g>
			<path style="fill:#7E3B29;" d="M613.171,2019.941c-2.808,0-5.084-2.278-5.084-5.085v-28.711c0-2.807,2.275-5.085,5.084-5.085
				c2.809,0,5.085,2.277,5.085,5.085v28.711C618.256,2017.664,615.98,2019.941,613.171,2019.941z"/>
			<path style="fill:#7E3B29;" d="M652.399,2019.941c-2.808,0-5.084-2.278-5.084-5.085v-28.711c0-2.807,2.276-5.085,5.084-5.085
				c2.81,0,5.085,2.277,5.085,5.085v28.711C657.484,2017.664,655.209,2019.941,652.399,2019.941z"/>
			<path style="fill:#7E3B29;" d="M691.627,2019.941c-2.807,0-5.085-2.278-5.085-5.085v-28.711c0-2.807,2.278-5.085,5.085-5.085
				c2.807,0,5.085,2.277,5.085,5.085v28.711C696.712,2017.664,694.435,2019.941,691.627,2019.941z"/>
			<path style="fill:#7E3B29;" d="M730.855,2019.941c-2.807,0-5.085-2.278-5.085-5.085v-28.711c0-2.807,2.278-5.085,5.085-5.085
				c2.807,0,5.085,2.277,5.085,5.085v28.711C735.94,2017.664,733.663,2019.941,730.855,2019.941z"/>
			<path style="fill:#7E3B29;" d="M809.309,2019.941c-2.807,0-5.085-2.278-5.085-5.085v-28.711c0-2.807,2.278-5.085,5.085-5.085
				s5.085,2.277,5.085,5.085v28.711C814.393,2017.664,812.116,2019.941,809.309,2019.941z"/>
			<path style="fill:#7E3B29;" d="M887.765,2019.941c-2.807,0-5.085-2.278-5.085-5.085v-28.711c0-2.807,2.278-5.085,5.085-5.085
				s5.085,2.277,5.085,5.085v28.711C892.85,2017.664,890.572,2019.941,887.765,2019.941z"/>
			<path style="fill:#7E3B29;" d="M966.221,2019.941c-2.807,0-5.085-2.278-5.085-5.085v-28.711c0-2.807,2.278-5.085,5.085-5.085
				c2.806,0,5.084,2.277,5.084,5.085v28.711C971.305,2017.664,969.027,2019.941,966.221,2019.941z"/>
			<path style="fill:#7E3B29;" d="M1005.448,2019.941c-2.806,0-5.084-2.278-5.084-5.085v-28.711c0-2.807,2.278-5.085,5.084-5.085
				c2.807,0,5.085,2.277,5.085,5.085v28.711C1010.533,2017.664,1008.256,2019.941,1005.448,2019.941z"/>
			<path style="fill:#7E3B29;" d="M770.084,2019.941c-2.807,0-5.085-2.278-5.085-5.085v-28.711c0-2.807,2.278-5.085,5.085-5.085
				c2.807,0,5.085,2.277,5.085,5.085v28.711C775.169,2017.664,772.891,2019.941,770.084,2019.941z"/>
			<path style="fill:#7E3B29;" d="M848.537,2019.941c-2.807,0-5.085-2.278-5.085-5.085v-28.711c0-2.807,2.278-5.085,5.085-5.085
				s5.085,2.277,5.085,5.085v28.711C853.622,2017.664,851.344,2019.941,848.537,2019.941z"/>
			<path style="fill:#7E3B29;" d="M926.993,2019.941c-2.807,0-5.085-2.278-5.085-5.085v-28.711c0-2.807,2.278-5.085,5.085-5.085
				s5.085,2.277,5.085,5.085v28.711C932.078,2017.664,929.8,2019.941,926.993,2019.941z"/>
			<path style="fill:#7E3B29;" d="M1044.676,2019.941c-2.807,0-5.085-2.278-5.085-5.085v-28.711c0-2.807,2.277-5.085,5.085-5.085
				c2.807,0,5.085,2.277,5.085,5.085v28.711C1049.761,2017.664,1047.484,2019.941,1044.676,2019.941z"/>
		</g>
		<g>
			<path style="fill:#7E3B29;" d="M748.367,1982.156c-2.022,0-4.025-0.903-5.363-2.625c-2.294-2.96-1.754-7.22,1.205-9.513
				l154.337-119.641c2.96-2.291,7.213-1.754,9.514,1.205c2.295,2.96,1.754,7.22-1.205,9.515l-154.336,119.64
				C751.281,1981.693,749.821,1982.156,748.367,1982.156z"/>
			<path style="fill:#7E3B29;" d="M925.426,1985.746c-1.396,0-2.81-0.431-4.022-1.328l-160.318-118.446
				c-3.012-2.224-3.648-6.468-1.423-9.481c2.217-3.012,6.465-3.655,9.48-1.423l160.319,118.446c3.012,2.224,3.648,6.468,1.423,9.48
				C929.558,1984.795,927.506,1985.746,925.426,1985.746z"/>
		</g>
		<path style="fill:#7E3B29;" d="M1365.704,2756.233c-1.023,0-2.062-0.232-3.039-0.722l-272.778-137.188
			c-3.347-1.685-4.695-5.76-3.013-9.104c1.682-3.344,5.757-4.694,9.104-3.012l272.779,137.189c3.347,1.686,4.693,5.76,3.012,9.104
			C1370.578,2754.866,1368.188,2756.233,1365.704,2756.233z"/>
		<path style="fill:#7E3B29;" d="M1155.141,2768.995c-1.559,0-3.125-0.536-4.403-1.629c-2.847-2.433-3.178-6.712-0.745-9.556
			l132.403-154.738c2.433-2.85,6.709-3.177,9.556-0.744c2.847,2.433,3.178,6.714,0.745,9.557l-132.402,154.737
			C1158.954,2768.191,1157.054,2768.995,1155.141,2768.995z"/>
		<path style="fill:#7E3B29;" d="M1115.264,2689.235c-3.721,0-6.753-3.002-6.78-6.73c-0.026-3.744,2.986-6.799,6.731-6.83
			l213.758-1.595c0.016,0,0.033,0,0.049,0c3.721,0,6.753,3.002,6.78,6.73c0.027,3.744-2.986,6.8-6.73,6.83l-213.759,1.595
			C1115.297,2689.235,1115.28,2689.235,1115.264,2689.235z"/>
		<path style="fill:#7E3B29;" d="M1467.804,2920.542c-0.98,0-1.973-0.212-2.917-0.659l-311.067-148.355
			c-3.38-1.612-4.81-5.661-3.201-9.041c1.618-3.38,5.661-4.803,9.041-3.201l311.067,148.355c3.38,1.612,4.809,5.661,3.201,9.041
			C1472.762,2919.118,1470.332,2920.542,1467.804,2920.542z"/>
		<path style="fill:#7E3B29;" d="M1231.71,2923.73c-1.559,0-3.125-0.537-4.406-1.629c-2.844-2.433-3.175-6.714-0.741-9.561
			l132.405-154.734c2.433-2.84,6.706-3.175,9.561-0.742c2.843,2.433,3.174,6.714,0.741,9.561l-132.405,154.733
			C1235.523,2922.924,1233.623,2923.73,1231.71,2923.73z"/>
		<path style="fill:#7E3B29;" d="M1408.786,2847.16c-0.036,0-0.07,0-0.103,0l-216.95-3.191c-3.744-0.056-6.733-3.134-6.679-6.879
			c0.056-3.71,3.079-6.681,6.776-6.681c0.036,0,0.07,0,0.103,0l216.949,3.191c3.745,0.057,6.733,3.135,6.681,6.88
			C1415.506,2844.19,1412.484,2847.16,1408.786,2847.16z"/>
		<g>
			<path style="fill:#7E3B29;" d="M1557.138,3036.994c-0.699,0-1.407-0.109-2.106-0.338l-327.016-106.879
				c-3.559-1.166-5.502-4.992-4.341-8.551c1.169-3.559,4.999-5.492,8.552-4.341l327.016,106.88c3.559,1.165,5.502,4.991,4.34,8.551
				C1562.646,3035.177,1559.991,3036.994,1557.138,3036.994z"/>
			<path style="fill:#7E3B29;" d="M1257.246,3036.991c-2.413,0-4.75-1.291-5.975-3.565c-1.775-3.298-0.543-7.409,2.755-9.183
				l207.375-111.666c3.294-1.784,7.405-0.543,9.183,2.754c1.774,3.297,0.543,7.41-2.755,9.183l-207.375,111.667
				C1259.431,3036.732,1258.332,3036.991,1257.246,3036.991z"/>
			<path style="fill:#7E3B29;" d="M1250.851,2982.754c-3.602,0-6.601-2.837-6.766-6.472c-0.169-3.74,2.725-6.912,6.465-7.081
				l245.664-11.166c3.654-0.152,6.909,2.725,7.08,6.465c0.168,3.741-2.725,6.912-6.465,7.082l-245.664,11.166
				C1251.06,2982.75,1250.957,2982.754,1250.851,2982.754z"/>
		</g>
		<path style="fill:#7E3B29;" d="M303.307,2756.233c-2.481,0-4.872-1.367-6.062-3.734c-1.684-3.344-0.335-7.418,3.011-9.104
			l272.781-137.189c3.337-1.685,7.418-0.334,9.102,3.012c1.683,3.344,0.334,7.419-3.011,9.104l-272.781,137.188
			C305.37,2756.002,304.331,2756.233,303.307,2756.233z"/>
		<path style="fill:#7E3B29;" d="M513.873,2768.995c-1.913,0-3.814-0.804-5.155-2.37l-132.404-154.737
			c-2.434-2.847-2.102-7.127,0.743-9.561c2.846-2.433,7.128-2.106,9.56,0.744L519.02,2757.81c2.435,2.844,2.103,7.124-0.743,9.556
			C517,2768.459,515.433,2768.995,513.873,2768.995z"/>
		<path style="fill:#7E3B29;" d="M553.751,2689.235c-0.018,0-0.034,0-0.052,0l-213.758-1.595c-3.744-0.03-6.757-3.085-6.729-6.83
			c0.028-3.743,3.095-6.736,6.831-6.73l213.759,1.595c3.743,0.03,6.757,3.085,6.728,6.83
			C560.502,2686.232,557.471,2689.235,553.751,2689.235z"/>
		<path style="fill:#7E3B29;" d="M201.213,2920.542c-2.533,0-4.963-1.424-6.124-3.86c-1.613-3.38-0.179-7.429,3.201-9.041
			l311.066-148.355c3.384-1.592,7.428-0.172,9.037,3.201c1.613,3.38,0.179,7.429-3.201,9.041l-311.066,148.355
			C203.184,2920.329,202.191,2920.542,201.213,2920.542z"/>
		<path style="fill:#7E3B29;" d="M437.302,2923.73c-1.913,0-3.813-0.805-5.154-2.371l-132.403-154.733
			c-2.434-2.847-2.102-7.128,0.743-9.561c2.847-2.433,7.124-2.098,9.56,0.742L442.45,2912.54c2.434,2.847,2.102,7.128-0.743,9.561
			C440.429,2923.192,438.861,2923.73,437.302,2923.73z"/>
		<path style="fill:#7E3B29;" d="M260.228,2847.16c-3.697,0-6.723-2.969-6.778-6.679c-0.055-3.745,2.937-6.823,6.68-6.88
			l216.95-3.191c3.725-0.079,6.822,2.937,6.879,6.681c0.055,3.744-2.937,6.823-6.681,6.879l-216.95,3.191
			C260.297,2847.16,260.261,2847.16,260.228,2847.16z"/>
		<g>
			<path style="fill:#7E3B29;" d="M111.874,3036.994c-2.853,0-5.508-1.818-6.442-4.677c-1.163-3.559,0.779-7.386,4.339-8.551
				l327.02-106.88c3.545-1.165,7.385,0.778,8.548,4.341c1.163,3.558-0.777,7.385-4.337,8.551l-327.02,106.879
				C113.283,3036.885,112.572,3036.994,111.874,3036.994z"/>
			<path style="fill:#7E3B29;" d="M411.77,3036.991c-1.084,0-2.185-0.259-3.208-0.811l-207.376-111.667
				c-3.297-1.774-4.531-5.886-2.755-9.183c1.772-3.293,5.88-4.541,9.183-2.754l207.377,111.666c3.297,1.775,4.53,5.886,2.754,9.183
				C416.522,3035.7,414.184,3036.991,411.77,3036.991z"/>
			<path style="fill:#7E3B29;" d="M418.162,2982.754c-0.104,0-0.208-0.003-0.312-0.007l-245.664-11.166
				c-3.74-0.169-6.634-3.34-6.465-7.082c0.171-3.74,3.365-6.574,7.08-6.465l245.664,11.166c3.74,0.168,6.633,3.34,6.465,7.081
				C424.765,2979.916,421.766,2982.754,418.162,2982.754z"/>
		</g>
	</g>
</g>
</svg>
